<svg width="840" height="420" viewBox="0 0 840 420" fill="none" xmlns="http://www.w3.org/2000/svg">
<path d="M20 40H180V160C153.28 139.96 136.64 139.96 126.56 139.96C110.56 139.96 89.28 160 73.28 160C63.36 160 46.56 160 20 139.96V40Z" fill="#D1BCD2" stroke="black" stroke-width="2"/>
<path d="M340 40H500V160H340V40Z" fill="#FFECA9" stroke="black" stroke-width="2"/>
<path d="M660 40H820V160H660V40Z" fill="#99D5CA" stroke="black" stroke-width="2"/>
<path d="M659 122.67H519.24" stroke="black" stroke-width="2"/>
<path d="M660 123.67H659V121.67H660V123.67ZM518.5 127.3L504.24 122.67L518.5 118.03V127.3Z" fill="black"/>
<path d="M519.5 128.68L501 122.68L519.5 116.65V128.68ZM507.47 122.68L517.5 125.93V119.41L507.47 122.68Z" fill="black"/>
<path d="M501 80H639.1" stroke="black" stroke-width="2"/>
<path d="M501 81H500V79H501V81Z" fill="black"/>
<path d="M654.1 80L639.83 84.64V75.36L654.1 80Z" fill="black" stroke="black" stroke-width="2"/>
<path d="M339 122.67H202.47" stroke="#19967D" stroke-width="4"/>
<path d="M340 124.67H339V120.67H340V124.67Z" fill="#19967D"/>
<path d="M187.47 122.67L201.74 118.03V127.3L187.47 122.67Z" fill="#19967D" stroke="#19967D" stroke-width="4"/>
<path d="M340 280H500V400H340V280Z" fill="#99D5CA" stroke="black" stroke-width="2"/>
<path d="M440 161V260.76" stroke="black" stroke-width="2"/>
<path d="M441 161H439V160H441V161ZM440 275.76L435.36 261.5H444.64L440 275.76Z" fill="black"/>
<path d="M440 279L434 260.5H446L440 279ZM436.74 262.5L440 272.53L443.26 262.5H436.74Z" fill="black"/>
<path d="M180 80H320.76" stroke="black" stroke-width="2"/>
<path d="M335.76 80L321.5 84.64V75.36L335.76 80Z" fill="black"/>
<path d="M339 80L320.5 86V74L339 80ZM322.5 83.26L332.53 80L322.5 76.74V83.26Z" fill="black"/>
<path d="M398.67 279V182.47" stroke="#19967D" stroke-width="4"/>
<path d="M400.67 280H396.67V279H400.67V280ZM403.3 181.74H394.03L398.67 167.47L403.3 181.74Z" fill="#19967D"/>
<path d="M406.05 183.74H391.28L398.68 161L406.05 183.74ZM396.78 179.74H400.55L398.67 173.94L396.78 179.74Z" fill="#19967D"/>
<path d="M53.293 93.165C53.1436 94.4434 52.6704 95.4312 51.8735 96.1284C51.0822 96.8201 50.028 97.166 48.7109 97.166C47.2832 97.166 46.1377 96.6541 45.2744 95.6304C44.4167 94.6066 43.9878 93.237 43.9878 91.5215V90.3594C43.9878 89.236 44.187 88.2482 44.5854 87.396C44.9894 86.5438 45.5594 85.8908 46.2954 85.437C47.0314 84.9777 47.8836 84.748 48.8521 84.748C50.1359 84.748 51.1652 85.1077 51.9399 85.8271C52.7147 86.541 53.1657 87.5316 53.293 88.7988H51.6909C51.5526 87.8359 51.251 87.1387 50.7861 86.707C50.3268 86.2754 49.6821 86.0596 48.8521 86.0596C47.8338 86.0596 47.0342 86.4359 46.4531 87.1885C45.8776 87.9411 45.5898 89.0119 45.5898 90.4009V91.5713C45.5898 92.8828 45.8638 93.9259 46.4116 94.7007C46.9595 95.4754 47.7259 95.8628 48.7109 95.8628C49.5964 95.8628 50.2743 95.6636 50.7446 95.2651C51.2205 94.8612 51.536 94.1611 51.6909 93.165H53.293ZM54.8286 92.4263C54.8286 91.5464 55.0002 90.755 55.3433 90.0522C55.6919 89.3494 56.1733 88.8071 56.7876 88.4253C57.4074 88.0435 58.113 87.8525 58.9043 87.8525C60.1273 87.8525 61.1151 88.2759 61.8677 89.1226C62.6258 89.9692 63.0049 91.0954 63.0049 92.501V92.6089C63.0049 93.4832 62.8361 94.269 62.4985 94.9663C62.1665 95.658 61.6878 96.1976 61.0625 96.585C60.4427 96.9723 59.7288 97.166 58.9209 97.166C57.7035 97.166 56.7157 96.7427 55.9575 95.896C55.2049 95.0493 54.8286 93.9287 54.8286 92.5342V92.4263ZM56.3726 92.6089C56.3726 93.605 56.6022 94.4046 57.0615 95.0078C57.5264 95.611 58.1462 95.9126 58.9209 95.9126C59.7012 95.9126 60.321 95.6082 60.7803 94.9995C61.2396 94.3853 61.4692 93.5275 61.4692 92.4263C61.4692 91.4412 61.234 90.6444 60.7637 90.0356C60.2988 89.4214 59.679 89.1143 58.9043 89.1143C58.1462 89.1143 57.5347 89.4159 57.0698 90.019C56.605 90.6222 56.3726 91.4855 56.3726 92.6089ZM66.3833 88.0186L66.4331 89.1475C67.1193 88.2842 68.0158 87.8525 69.1226 87.8525C71.0207 87.8525 71.978 88.9233 71.9946 91.0649V97H70.459V91.0566C70.4535 90.4092 70.304 89.9305 70.0107 89.6206C69.723 89.3107 69.272 89.1558 68.6577 89.1558C68.1597 89.1558 67.7225 89.2886 67.3462 89.5542C66.9699 89.8198 66.6766 90.1685 66.4663 90.6001V97H64.9307V88.0186H66.3833ZM76.394 85.8438V88.0186H78.0708V89.2056H76.394V94.7754C76.394 95.1351 76.4688 95.4062 76.6182 95.5889C76.7676 95.766 77.0221 95.8545 77.3818 95.8545C77.5589 95.8545 77.8024 95.8213 78.1123 95.7549V97C77.7083 97.1107 77.3154 97.166 76.9336 97.166C76.2474 97.166 75.73 96.9585 75.3813 96.5435C75.0327 96.1284 74.8584 95.5391 74.8584 94.7754V89.2056H73.2231V88.0186H74.8584V85.8438H76.394ZM83.5991 97.166C82.3817 97.166 81.3911 96.7676 80.6274 95.9707C79.8638 95.1683 79.4819 94.0975 79.4819 92.7583V92.4761C79.4819 91.5851 79.6507 90.791 79.9883 90.0938C80.3314 89.391 80.8073 88.8431 81.416 88.4502C82.0303 88.0518 82.6943 87.8525 83.4082 87.8525C84.5758 87.8525 85.4834 88.2371 86.1309 89.0063C86.7783 89.7756 87.1021 90.8768 87.1021 92.3101V92.9492H81.0176C81.0397 93.8346 81.297 94.5513 81.7896 95.0991C82.2876 95.6414 82.9185 95.9126 83.6821 95.9126C84.2244 95.9126 84.6838 95.8019 85.0601 95.5806C85.4364 95.3592 85.7656 95.0659 86.0479 94.7007L86.9858 95.4312C86.2332 96.5877 85.1043 97.166 83.5991 97.166ZM83.4082 89.1143C82.7884 89.1143 82.2682 89.3411 81.8477 89.7949C81.4271 90.2432 81.167 90.874 81.0674 91.6875H85.5664V91.5713C85.5221 90.791 85.3118 90.1878 84.9355 89.7617C84.5592 89.3301 84.0501 89.1143 83.4082 89.1143ZM90.3394 88.0186L90.3892 89.1475C91.0754 88.2842 91.9718 87.8525 93.0786 87.8525C94.9767 87.8525 95.9341 88.9233 95.9507 91.0649V97H94.415V91.0566C94.4095 90.4092 94.2601 89.9305 93.9668 89.6206C93.679 89.3107 93.228 89.1558 92.6138 89.1558C92.1157 89.1558 91.6785 89.2886 91.3022 89.5542C90.9259 89.8198 90.6326 90.1685 90.4224 90.6001V97H88.8867V88.0186H90.3394ZM100.35 85.8438V88.0186H102.027V89.2056H100.35V94.7754C100.35 95.1351 100.425 95.4062 100.574 95.5889C100.724 95.766 100.978 95.8545 101.338 95.8545C101.515 95.8545 101.758 95.8213 102.068 95.7549V97C101.664 97.1107 101.271 97.166 100.89 97.166C100.203 97.166 99.686 96.9585 99.3374 96.5435C98.9888 96.1284 98.8145 95.5391 98.8145 94.7754V89.2056H97.1792V88.0186H98.8145V85.8438H100.35ZM104.583 97V89.2056H103.164V88.0186H104.583V87.0972C104.583 86.1343 104.841 85.39 105.355 84.8643C105.87 84.3385 106.598 84.0757 107.539 84.0757C107.893 84.0757 108.244 84.1227 108.593 84.2168L108.51 85.4619C108.25 85.4121 107.973 85.3872 107.68 85.3872C107.182 85.3872 106.797 85.5339 106.526 85.8271C106.255 86.1149 106.119 86.5299 106.119 87.0723V88.0186H108.037V89.2056H106.119V97H104.583ZM115.283 96.1118C114.686 96.8146 113.808 97.166 112.652 97.166C111.694 97.166 110.964 96.8893 110.46 96.3359C109.962 95.777 109.711 94.9525 109.705 93.8623V88.0186H111.241V93.8208C111.241 95.1821 111.794 95.8628 112.901 95.8628C114.074 95.8628 114.854 95.4256 115.242 94.5513V88.0186H116.777V97H115.316L115.283 96.1118ZM120.787 97H119.251V84.25H120.787V97ZM134.383 93.8457H129.32L128.183 97H126.539L131.154 84.9141H132.549L137.172 97H135.537L134.383 93.8457ZM129.801 92.5342H133.91L131.852 86.8813L129.801 92.5342ZM146.146 92.6089C146.146 93.9757 145.833 95.077 145.208 95.9126C144.582 96.7482 143.736 97.166 142.667 97.166C141.577 97.166 140.72 96.8201 140.094 96.1284V100.453H138.559V88.0186H139.961L140.036 89.0146C140.661 88.2399 141.53 87.8525 142.643 87.8525C143.722 87.8525 144.574 88.2593 145.199 89.0728C145.83 89.8862 146.146 91.0179 146.146 92.4678V92.6089ZM144.61 92.4346C144.61 91.4219 144.394 90.6222 143.962 90.0356C143.531 89.4491 142.939 89.1558 142.186 89.1558C141.256 89.1558 140.559 89.568 140.094 90.3926V94.6841C140.554 95.5031 141.256 95.9126 142.203 95.9126C142.939 95.9126 143.522 95.6221 143.954 95.041C144.391 94.4544 144.61 93.5856 144.61 92.4346ZM155.691 92.6089C155.691 93.9757 155.379 95.077 154.753 95.9126C154.128 96.7482 153.281 97.166 152.213 97.166C151.123 97.166 150.265 96.8201 149.64 96.1284V100.453H148.104V88.0186H149.507L149.582 89.0146C150.207 88.2399 151.076 87.8525 152.188 87.8525C153.268 87.8525 154.12 88.2593 154.745 89.0728C155.376 89.8862 155.691 91.0179 155.691 92.4678V92.6089ZM154.156 92.4346C154.156 91.4219 153.94 90.6222 153.508 90.0356C153.077 89.4491 152.485 89.1558 151.732 89.1558C150.802 89.1558 150.105 89.568 149.64 90.3926V94.6841C150.099 95.5031 150.802 95.9126 151.749 95.9126C152.485 95.9126 153.068 95.6221 153.5 95.041C153.937 94.4544 154.156 93.5856 154.156 92.4346Z" fill="black"/>
<path d="M191.176 67.5879H187.304L186.435 70H185.178L188.707 60.7578H189.773L193.309 70H192.059L191.176 67.5879ZM187.672 66.585H190.814L189.24 62.2622L187.672 66.585ZM195.772 66.3818V70H194.553V60.7578H197.962C198.973 60.7578 199.765 61.016 200.336 61.5322C200.911 62.0485 201.199 62.7319 201.199 63.5825C201.199 64.4797 200.918 65.1715 200.355 65.6582C199.796 66.1406 198.994 66.3818 197.949 66.3818H195.772ZM195.772 65.3853H197.962C198.614 65.3853 199.113 65.2329 199.46 64.9282C199.807 64.6193 199.98 64.175 199.98 63.5952C199.98 63.0451 199.807 62.605 199.46 62.2749C199.113 61.9448 198.637 61.7734 198.032 61.7607H195.772V65.3853ZM204.062 70H202.843V60.7578H204.062V70ZM212.911 66.2612H210.74V70H209.515V60.7578H212.574C213.615 60.7578 214.415 60.9948 214.974 61.4688C215.536 61.9427 215.818 62.6325 215.818 63.5381C215.818 64.1136 215.661 64.6151 215.348 65.0425C215.039 65.4699 214.608 65.7894 214.053 66.001L216.224 69.9238V70H214.917L212.911 66.2612ZM210.74 65.2646H212.612C213.217 65.2646 213.698 65.1081 214.053 64.7949C214.413 64.4818 214.593 64.0628 214.593 63.5381C214.593 62.9668 214.421 62.5288 214.079 62.2241C213.74 61.9194 213.249 61.765 212.606 61.7607H210.74V65.2646ZM220.198 70.127C219.267 70.127 218.509 69.8223 217.925 69.2129C217.341 68.5993 217.049 67.7804 217.049 66.7563V66.5405C217.049 65.8592 217.178 65.252 217.437 64.7188C217.699 64.1813 218.063 63.7624 218.528 63.4619C218.998 63.1572 219.506 63.0049 220.052 63.0049C220.945 63.0049 221.639 63.299 222.134 63.8872C222.629 64.4754 222.876 65.3175 222.876 66.4136V66.9023H218.224C218.241 67.5794 218.437 68.1274 218.814 68.5464C219.195 68.9611 219.677 69.1685 220.261 69.1685C220.676 69.1685 221.027 69.0838 221.315 68.9146C221.603 68.7453 221.854 68.521 222.07 68.2417L222.788 68.8003C222.212 69.6847 221.349 70.127 220.198 70.127ZM220.052 63.9697C219.578 63.9697 219.18 64.1432 218.858 64.4902C218.537 64.833 218.338 65.3154 218.262 65.9375H221.702V65.8486C221.668 65.252 221.507 64.7907 221.22 64.4648C220.932 64.1348 220.543 63.9697 220.052 63.9697ZM223.956 66.5088C223.956 65.4297 224.203 64.577 224.698 63.9507C225.193 63.3201 225.858 63.0049 226.691 63.0049C227.504 63.0049 228.145 63.2778 228.615 63.8237L228.666 63.1318H229.745V72.6406H228.57V69.3652C228.096 69.873 227.466 70.127 226.679 70.127C225.849 70.127 225.187 69.8053 224.692 69.1621C224.201 68.5146 223.956 67.6577 223.956 66.5913V66.5088ZM225.13 66.6421C225.13 67.4292 225.295 68.047 225.625 68.4956C225.959 68.9442 226.408 69.1685 226.971 69.1685C227.669 69.1685 228.202 68.8595 228.57 68.2417V64.8774C228.198 64.2723 227.669 63.9697 226.983 63.9697C226.416 63.9697 225.966 64.1961 225.631 64.6489C225.297 65.0975 225.13 65.7619 225.13 66.6421ZM235.87 69.3208C235.413 69.8582 234.742 70.127 233.858 70.127C233.126 70.127 232.567 69.9154 232.182 69.4922C231.801 69.0648 231.609 68.4342 231.604 67.6006V63.1318H232.779V67.5688C232.779 68.6099 233.202 69.1304 234.048 69.1304C234.945 69.1304 235.542 68.7961 235.838 68.1274V63.1318H237.013V70H235.896L235.87 69.3208ZM241.653 70.127C240.722 70.127 239.964 69.8223 239.38 69.2129C238.796 68.5993 238.504 67.7804 238.504 66.7563V66.5405C238.504 65.8592 238.633 65.252 238.892 64.7188C239.154 64.1813 239.518 63.7624 239.983 63.4619C240.453 63.1572 240.961 63.0049 241.507 63.0049C242.4 63.0049 243.094 63.299 243.589 63.8872C244.084 64.4754 244.332 65.3175 244.332 66.4136V66.9023H239.679C239.696 67.5794 239.892 68.1274 240.269 68.5464C240.65 68.9611 241.132 69.1685 241.716 69.1685C242.131 69.1685 242.482 69.0838 242.77 68.9146C243.058 68.7453 243.31 68.521 243.525 68.2417L244.243 68.8003C243.667 69.6847 242.804 70.127 241.653 70.127ZM241.507 63.9697C241.033 63.9697 240.635 64.1432 240.313 64.4902C239.992 64.833 239.793 65.3154 239.717 65.9375H243.157V65.8486C243.123 65.252 242.963 64.7907 242.675 64.4648C242.387 64.1348 241.998 63.9697 241.507 63.9697ZM249.695 68.1782C249.695 67.8608 249.575 67.6154 249.333 67.4419C249.097 67.2642 248.68 67.1118 248.083 66.9849C247.491 66.8579 247.019 66.7056 246.667 66.5278C246.32 66.3501 246.062 66.1385 245.893 65.8931C245.728 65.6476 245.646 65.3556 245.646 65.0171C245.646 64.4543 245.882 63.9782 246.356 63.5889C246.835 63.1995 247.444 63.0049 248.185 63.0049C248.963 63.0049 249.594 63.2059 250.076 63.6079C250.563 64.0099 250.806 64.5241 250.806 65.1504H249.625C249.625 64.8288 249.488 64.5516 249.213 64.3188C248.942 64.0861 248.599 63.9697 248.185 63.9697C247.757 63.9697 247.423 64.0628 247.182 64.249C246.94 64.4352 246.82 64.6785 246.82 64.979C246.82 65.2625 246.932 65.4762 247.156 65.6201C247.381 65.764 247.785 65.9015 248.369 66.0327C248.957 66.1639 249.433 66.3205 249.797 66.5024C250.161 66.6844 250.43 66.9045 250.603 67.1626C250.781 67.4165 250.87 67.7275 250.87 68.0957C250.87 68.7093 250.624 69.2023 250.133 69.5747C249.642 69.9429 249.006 70.127 248.223 70.127C247.673 70.127 247.186 70.0296 246.763 69.835C246.34 69.6403 246.007 69.3695 245.766 69.0225C245.529 68.6712 245.411 68.2925 245.411 67.8862H246.585C246.606 68.2798 246.763 68.5929 247.055 68.8257C247.351 69.0542 247.74 69.1685 248.223 69.1685C248.667 69.1685 249.022 69.0796 249.289 68.9019C249.56 68.7199 249.695 68.4787 249.695 68.1782ZM253.993 61.4688V63.1318H255.275V64.0396H253.993V68.2988C253.993 68.5739 254.05 68.7812 254.164 68.9209C254.278 69.0563 254.473 69.124 254.748 69.124C254.883 69.124 255.07 69.0986 255.307 69.0479V70C254.998 70.0846 254.697 70.127 254.405 70.127C253.881 70.127 253.485 69.9683 253.218 69.6509C252.952 69.3335 252.818 68.8828 252.818 68.2988V64.0396H251.568V63.1318H252.818V61.4688H253.993Z" fill="black"/>
<path d="M509.462 66.2612H507.292V70H506.066V60.7578H509.126C510.167 60.7578 510.967 60.9948 511.525 61.4688C512.088 61.9427 512.37 62.6325 512.37 63.5381C512.37 64.1136 512.213 64.6151 511.9 65.0425C511.591 65.4699 511.159 65.7894 510.605 66.001L512.776 69.9238V70H511.468L509.462 66.2612ZM507.292 65.2646H509.164C509.769 65.2646 510.25 65.1081 510.605 64.7949C510.965 64.4818 511.145 64.0628 511.145 63.5381C511.145 62.9668 510.973 62.5288 510.63 62.2241C510.292 61.9194 509.801 61.765 509.158 61.7607H507.292V65.2646ZM516.75 70.127C515.819 70.127 515.061 69.8223 514.477 69.2129C513.893 68.5993 513.601 67.7804 513.601 66.7563V66.5405C513.601 65.8592 513.73 65.252 513.988 64.7188C514.251 64.1813 514.615 63.7624 515.08 63.4619C515.55 63.1572 516.058 63.0049 516.604 63.0049C517.496 63.0049 518.19 63.299 518.686 63.8872C519.181 64.4754 519.428 65.3175 519.428 66.4136V66.9023H514.775C514.792 67.5794 514.989 68.1274 515.366 68.5464C515.747 68.9611 516.229 69.1685 516.813 69.1685C517.228 69.1685 517.579 69.0838 517.867 68.9146C518.154 68.7453 518.406 68.521 518.622 68.2417L519.339 68.8003C518.764 69.6847 517.901 70.127 516.75 70.127ZM516.604 63.9697C516.13 63.9697 515.732 64.1432 515.41 64.4902C515.089 64.833 514.89 65.3154 514.813 65.9375H518.254V65.8486C518.22 65.252 518.059 64.7907 517.771 64.4648C517.484 64.1348 517.094 63.9697 516.604 63.9697ZM520.507 66.5088C520.507 65.4297 520.755 64.577 521.25 63.9507C521.745 63.3201 522.41 63.0049 523.243 63.0049C524.056 63.0049 524.697 63.2778 525.167 63.8237L525.217 63.1318H526.296V72.6406H525.122V69.3652C524.648 69.873 524.018 70.127 523.23 70.127C522.401 70.127 521.739 69.8053 521.244 69.1621C520.753 68.5146 520.507 67.6577 520.507 66.5913V66.5088ZM521.682 66.6421C521.682 67.4292 521.847 68.047 522.177 68.4956C522.511 68.9442 522.96 69.1685 523.522 69.1685C524.221 69.1685 524.754 68.8595 525.122 68.2417V64.8774C524.75 64.2723 524.221 63.9697 523.535 63.9697C522.968 63.9697 522.517 64.1961 522.183 64.6489C521.849 65.0975 521.682 65.7619 521.682 66.6421ZM532.422 69.3208C531.965 69.8582 531.294 70.127 530.41 70.127C529.678 70.127 529.119 69.9154 528.734 69.4922C528.353 69.0648 528.16 68.4342 528.156 67.6006V63.1318H529.331V67.5688C529.331 68.6099 529.754 69.1304 530.6 69.1304C531.497 69.1304 532.094 68.7961 532.39 68.1274V63.1318H533.564V70H532.447L532.422 69.3208ZM538.205 70.127C537.274 70.127 536.516 69.8223 535.932 69.2129C535.348 68.5993 535.056 67.7804 535.056 66.7563V66.5405C535.056 65.8592 535.185 65.252 535.443 64.7188C535.706 64.1813 536.07 63.7624 536.535 63.4619C537.005 63.1572 537.513 63.0049 538.059 63.0049C538.951 63.0049 539.646 63.299 540.141 63.8872C540.636 64.4754 540.883 65.3175 540.883 66.4136V66.9023H536.23C536.247 67.5794 536.444 68.1274 536.821 68.5464C537.202 68.9611 537.684 69.1685 538.268 69.1685C538.683 69.1685 539.034 69.0838 539.322 68.9146C539.61 68.7453 539.861 68.521 540.077 68.2417L540.794 68.8003C540.219 69.6847 539.356 70.127 538.205 70.127ZM538.059 63.9697C537.585 63.9697 537.187 64.1432 536.865 64.4902C536.544 64.833 536.345 65.3154 536.269 65.9375H539.709V65.8486C539.675 65.252 539.514 64.7907 539.227 64.4648C538.939 64.1348 538.549 63.9697 538.059 63.9697ZM546.247 68.1782C546.247 67.8608 546.126 67.6154 545.885 67.4419C545.648 67.2642 545.231 67.1118 544.635 66.9849C544.042 66.8579 543.57 66.7056 543.219 66.5278C542.872 66.3501 542.614 66.1385 542.445 65.8931C542.28 65.6476 542.197 65.3556 542.197 65.0171C542.197 64.4543 542.434 63.9782 542.908 63.5889C543.386 63.1995 543.996 63.0049 544.736 63.0049C545.515 63.0049 546.146 63.2059 546.628 63.6079C547.115 64.0099 547.358 64.5241 547.358 65.1504H546.177C546.177 64.8288 546.04 64.5516 545.765 64.3188C545.494 64.0861 545.151 63.9697 544.736 63.9697C544.309 63.9697 543.975 64.0628 543.733 64.249C543.492 64.4352 543.372 64.6785 543.372 64.979C543.372 65.2625 543.484 65.4762 543.708 65.6201C543.932 65.764 544.336 65.9015 544.92 66.0327C545.509 66.1639 545.985 66.3205 546.349 66.5024C546.713 66.6844 546.981 66.9045 547.155 67.1626C547.333 67.4165 547.421 67.7275 547.421 68.0957C547.421 68.7093 547.176 69.2023 546.685 69.5747C546.194 69.9429 545.557 70.127 544.774 70.127C544.224 70.127 543.738 70.0296 543.314 69.835C542.891 69.6403 542.559 69.3695 542.318 69.0225C542.081 68.6712 541.962 68.2925 541.962 67.8862H543.137C543.158 68.2798 543.314 68.5929 543.606 68.8257C543.903 69.0542 544.292 69.1685 544.774 69.1685C545.219 69.1685 545.574 69.0796 545.841 68.9019C546.112 68.7199 546.247 68.4787 546.247 68.1782ZM550.544 61.4688V63.1318H551.827V64.0396H550.544V68.2988C550.544 68.5739 550.602 68.7812 550.716 68.9209C550.83 69.0563 551.025 69.124 551.3 69.124C551.435 69.124 551.621 69.0986 551.858 69.0479V70C551.549 70.0846 551.249 70.127 550.957 70.127C550.432 70.127 550.037 69.9683 549.77 69.6509C549.503 69.3335 549.37 68.8828 549.37 68.2988V64.0396H548.12V63.1318H549.37V61.4688H550.544ZM561.716 67.5879H557.844L556.975 70H555.718L559.247 60.7578H560.313L563.849 70H562.599L561.716 67.5879ZM558.212 66.585H561.354L559.78 62.2622L558.212 66.585ZM567.664 69.1685C568.083 69.1685 568.449 69.0415 568.762 68.7876C569.075 68.5337 569.249 68.2163 569.283 67.8354H570.394C570.372 68.229 570.237 68.6035 569.987 68.959C569.738 69.3145 569.403 69.598 568.984 69.8096C568.57 70.0212 568.13 70.127 567.664 70.127C566.729 70.127 565.984 69.8159 565.43 69.1938C564.88 68.5675 564.604 67.7127 564.604 66.6294V66.4326C564.604 65.764 564.727 65.1694 564.973 64.6489C565.218 64.1284 565.569 63.7243 566.026 63.4365C566.488 63.1488 567.031 63.0049 567.658 63.0049C568.428 63.0049 569.067 63.2355 569.575 63.6968C570.087 64.158 570.36 64.7568 570.394 65.4932H569.283C569.249 65.0488 569.08 64.6849 568.775 64.4014C568.474 64.1136 568.102 63.9697 567.658 63.9697C567.061 63.9697 566.598 64.1855 566.268 64.6172C565.942 65.0446 565.779 65.6646 565.779 66.4771V66.6992C565.779 67.4906 565.942 68.0999 566.268 68.5273C566.593 68.9548 567.059 69.1685 567.664 69.1685ZM574.469 69.1685C574.888 69.1685 575.254 69.0415 575.567 68.7876C575.88 68.5337 576.054 68.2163 576.087 67.8354H577.198C577.177 68.229 577.042 68.6035 576.792 68.959C576.542 69.3145 576.208 69.598 575.789 69.8096C575.374 70.0212 574.934 70.127 574.469 70.127C573.534 70.127 572.789 69.8159 572.234 69.1938C571.684 68.5675 571.409 67.7127 571.409 66.6294V66.4326C571.409 65.764 571.532 65.1694 571.777 64.6489C572.023 64.1284 572.374 63.7243 572.831 63.4365C573.292 63.1488 573.836 63.0049 574.462 63.0049C575.233 63.0049 575.872 63.2355 576.379 63.6968C576.891 64.158 577.164 64.7568 577.198 65.4932H576.087C576.054 65.0488 575.884 64.6849 575.58 64.4014C575.279 64.1136 574.907 63.9697 574.462 63.9697C573.866 63.9697 573.402 64.1855 573.072 64.6172C572.746 65.0446 572.583 65.6646 572.583 66.4771V66.6992C572.583 67.4906 572.746 68.0999 573.072 68.5273C573.398 68.9548 573.864 69.1685 574.469 69.1685ZM581.369 70.127C580.438 70.127 579.68 69.8223 579.096 69.2129C578.512 68.5993 578.22 67.7804 578.22 66.7563V66.5405C578.22 65.8592 578.349 65.252 578.607 64.7188C578.87 64.1813 579.234 63.7624 579.699 63.4619C580.169 63.1572 580.677 63.0049 581.223 63.0049C582.116 63.0049 582.81 63.299 583.305 63.8872C583.8 64.4754 584.047 65.3175 584.047 66.4136V66.9023H579.395C579.411 67.5794 579.608 68.1274 579.985 68.5464C580.366 68.9611 580.848 69.1685 581.432 69.1685C581.847 69.1685 582.198 69.0838 582.486 68.9146C582.774 68.7453 583.025 68.521 583.241 68.2417L583.958 68.8003C583.383 69.6847 582.52 70.127 581.369 70.127ZM581.223 63.9697C580.749 63.9697 580.351 64.1432 580.029 64.4902C579.708 64.833 579.509 65.3154 579.433 65.9375H582.873V65.8486C582.839 65.252 582.678 64.7907 582.391 64.4648C582.103 64.1348 581.714 63.9697 581.223 63.9697ZM589.411 68.1782C589.411 67.8608 589.291 67.6154 589.049 67.4419C588.812 67.2642 588.396 67.1118 587.799 66.9849C587.206 66.8579 586.735 66.7056 586.383 66.5278C586.036 66.3501 585.778 66.1385 585.609 65.8931C585.444 65.6476 585.361 65.3556 585.361 65.0171C585.361 64.4543 585.598 63.9782 586.072 63.5889C586.55 63.1995 587.16 63.0049 587.9 63.0049C588.679 63.0049 589.31 63.2059 589.792 63.6079C590.279 64.0099 590.522 64.5241 590.522 65.1504H589.341C589.341 64.8288 589.204 64.5516 588.929 64.3188C588.658 64.0861 588.315 63.9697 587.9 63.9697C587.473 63.9697 587.139 64.0628 586.897 64.249C586.656 64.4352 586.536 64.6785 586.536 64.979C586.536 65.2625 586.648 65.4762 586.872 65.6201C587.096 65.764 587.5 65.9015 588.084 66.0327C588.673 66.1639 589.149 66.3205 589.513 66.5024C589.877 66.6844 590.145 66.9045 590.319 67.1626C590.497 67.4165 590.585 67.7275 590.585 68.0957C590.585 68.7093 590.34 69.2023 589.849 69.5747C589.358 69.9429 588.721 70.127 587.938 70.127C587.388 70.127 586.902 70.0296 586.479 69.835C586.055 69.6403 585.723 69.3695 585.482 69.0225C585.245 68.6712 585.126 68.2925 585.126 67.8862H586.301C586.322 68.2798 586.479 68.5929 586.771 68.8257C587.067 69.0542 587.456 69.1685 587.938 69.1685C588.383 69.1685 588.738 69.0796 589.005 68.9019C589.276 68.7199 589.411 68.4787 589.411 68.1782ZM596.114 68.1782C596.114 67.8608 595.994 67.6154 595.752 67.4419C595.515 67.2642 595.099 67.1118 594.502 66.9849C593.91 66.8579 593.438 66.7056 593.086 66.5278C592.739 66.3501 592.481 66.1385 592.312 65.8931C592.147 65.6476 592.064 65.3556 592.064 65.0171C592.064 64.4543 592.301 63.9782 592.775 63.5889C593.254 63.1995 593.863 63.0049 594.604 63.0049C595.382 63.0049 596.013 63.2059 596.495 63.6079C596.982 64.0099 597.225 64.5241 597.225 65.1504H596.044C596.044 64.8288 595.907 64.5516 595.632 64.3188C595.361 64.0861 595.018 63.9697 594.604 63.9697C594.176 63.9697 593.842 64.0628 593.601 64.249C593.359 64.4352 593.239 64.6785 593.239 64.979C593.239 65.2625 593.351 65.4762 593.575 65.6201C593.799 65.764 594.204 65.9015 594.788 66.0327C595.376 66.1639 595.852 66.3205 596.216 66.5024C596.58 66.6844 596.848 66.9045 597.022 67.1626C597.2 67.4165 597.289 67.7275 597.289 68.0957C597.289 68.7093 597.043 69.2023 596.552 69.5747C596.061 69.9429 595.424 70.127 594.642 70.127C594.091 70.127 593.605 70.0296 593.182 69.835C592.758 69.6403 592.426 69.3695 592.185 69.0225C591.948 68.6712 591.83 68.2925 591.83 67.8862H593.004C593.025 68.2798 593.182 68.5929 593.474 68.8257C593.77 69.0542 594.159 69.1685 594.642 69.1685C595.086 69.1685 595.441 69.0796 595.708 68.9019C595.979 68.7199 596.114 68.4787 596.114 68.1782ZM608.359 61.7607H605.388V70H604.176V61.7607H601.211V60.7578H608.359V61.7607ZM608.6 66.5024C608.6 65.8296 608.731 65.2244 608.994 64.687C609.26 64.1496 609.628 63.7349 610.098 63.4429C610.572 63.1509 611.112 63.0049 611.717 63.0049C612.652 63.0049 613.407 63.3286 613.983 63.9761C614.563 64.6235 614.853 65.4847 614.853 66.5596V66.6421C614.853 67.3107 614.723 67.9116 614.465 68.4448C614.211 68.9738 613.845 69.3864 613.367 69.6826C612.893 69.9788 612.347 70.127 611.729 70.127C610.799 70.127 610.043 69.8032 609.463 69.1558C608.888 68.5083 608.6 67.6514 608.6 66.585V66.5024ZM609.781 66.6421C609.781 67.4038 609.956 68.0153 610.308 68.4766C610.663 68.9378 611.137 69.1685 611.729 69.1685C612.326 69.1685 612.8 68.9357 613.151 68.4702C613.503 68.0005 613.678 67.3446 613.678 66.5024C613.678 65.7492 613.498 65.1398 613.139 64.6743C612.783 64.2046 612.309 63.9697 611.717 63.9697C611.137 63.9697 610.669 64.2004 610.314 64.6616C609.958 65.1229 609.781 65.783 609.781 66.6421ZM618.242 66.8198L617.506 67.5879V70H616.332V60.25H617.506V66.147L618.134 65.3916L620.273 63.1318H621.702L619.029 66.001L622.013 70H620.635L618.242 66.8198ZM625.637 70.127C624.706 70.127 623.949 69.8223 623.365 69.2129C622.781 68.5993 622.489 67.7804 622.489 66.7563V66.5405C622.489 65.8592 622.618 65.252 622.876 64.7188C623.138 64.1813 623.502 63.7624 623.968 63.4619C624.438 63.1572 624.945 63.0049 625.491 63.0049C626.384 63.0049 627.078 63.299 627.573 63.8872C628.068 64.4754 628.316 65.3175 628.316 66.4136V66.9023H623.663C623.68 67.5794 623.877 68.1274 624.253 68.5464C624.634 68.9611 625.117 69.1685 625.701 69.1685C626.115 69.1685 626.467 69.0838 626.754 68.9146C627.042 68.7453 627.294 68.521 627.51 68.2417L628.227 68.8003C627.652 69.6847 626.788 70.127 625.637 70.127ZM625.491 63.9697C625.017 63.9697 624.619 64.1432 624.298 64.4902C623.976 64.833 623.777 65.3154 623.701 65.9375H627.142V65.8486C627.108 65.252 626.947 64.7907 626.659 64.4648C626.371 64.1348 625.982 63.9697 625.491 63.9697ZM630.792 63.1318L630.83 63.9951C631.354 63.335 632.04 63.0049 632.886 63.0049C634.338 63.0049 635.07 63.8237 635.083 65.4614V70H633.908V65.4551C633.904 64.96 633.79 64.5939 633.565 64.3569C633.345 64.12 633 64.0015 632.531 64.0015C632.15 64.0015 631.816 64.103 631.528 64.3062C631.24 64.5093 631.016 64.7759 630.855 65.106V70H629.681V63.1318H630.792Z" fill="black"/>
<path d="M579.176 136.588H575.304L574.435 139H573.178L576.707 129.758H577.773L581.309 139H580.059L579.176 136.588ZM575.672 135.585H578.814L577.24 131.262L575.672 135.585ZM585.124 138.168C585.543 138.168 585.909 138.042 586.222 137.788C586.535 137.534 586.709 137.216 586.743 136.835H587.854C587.832 137.229 587.697 137.604 587.447 137.959C587.198 138.314 586.863 138.598 586.444 138.81C586.03 139.021 585.59 139.127 585.124 139.127C584.189 139.127 583.444 138.816 582.89 138.194C582.34 137.568 582.064 136.713 582.064 135.629V135.433C582.064 134.764 582.187 134.169 582.433 133.649C582.678 133.128 583.029 132.724 583.486 132.437C583.948 132.149 584.491 132.005 585.118 132.005C585.888 132.005 586.527 132.236 587.035 132.697C587.547 133.158 587.82 133.757 587.854 134.493H586.743C586.709 134.049 586.54 133.685 586.235 133.401C585.934 133.114 585.562 132.97 585.118 132.97C584.521 132.97 584.058 133.186 583.728 133.617C583.402 134.045 583.239 134.665 583.239 135.477V135.699C583.239 136.491 583.402 137.1 583.728 137.527C584.053 137.955 584.519 138.168 585.124 138.168ZM591.929 138.168C592.348 138.168 592.714 138.042 593.027 137.788C593.34 137.534 593.514 137.216 593.547 136.835H594.658C594.637 137.229 594.502 137.604 594.252 137.959C594.002 138.314 593.668 138.598 593.249 138.81C592.834 139.021 592.394 139.127 591.929 139.127C590.993 139.127 590.249 138.816 589.694 138.194C589.144 137.568 588.869 136.713 588.869 135.629V135.433C588.869 134.764 588.992 134.169 589.237 133.649C589.483 133.128 589.834 132.724 590.291 132.437C590.752 132.149 591.296 132.005 591.922 132.005C592.693 132.005 593.332 132.236 593.839 132.697C594.351 133.158 594.624 133.757 594.658 134.493H593.547C593.514 134.049 593.344 133.685 593.04 133.401C592.739 133.114 592.367 132.97 591.922 132.97C591.326 132.97 590.862 133.186 590.532 133.617C590.206 134.045 590.043 134.665 590.043 135.477V135.699C590.043 136.491 590.206 137.1 590.532 137.527C590.858 137.955 591.324 138.168 591.929 138.168ZM598.829 139.127C597.898 139.127 597.14 138.822 596.556 138.213C595.972 137.599 595.68 136.78 595.68 135.756V135.541C595.68 134.859 595.809 134.252 596.067 133.719C596.33 133.181 596.694 132.762 597.159 132.462C597.629 132.157 598.137 132.005 598.683 132.005C599.576 132.005 600.27 132.299 600.765 132.887C601.26 133.475 601.507 134.318 601.507 135.414V135.902H596.854C596.871 136.579 597.068 137.127 597.445 137.546C597.826 137.961 598.308 138.168 598.892 138.168C599.307 138.168 599.658 138.084 599.946 137.915C600.234 137.745 600.485 137.521 600.701 137.242L601.418 137.8C600.843 138.685 599.98 139.127 598.829 139.127ZM598.683 132.97C598.209 132.97 597.811 133.143 597.489 133.49C597.168 133.833 596.969 134.315 596.893 134.938H600.333V134.849C600.299 134.252 600.138 133.791 599.851 133.465C599.563 133.135 599.174 132.97 598.683 132.97ZM606.871 137.178C606.871 136.861 606.75 136.615 606.509 136.442C606.272 136.264 605.855 136.112 605.259 135.985C604.666 135.858 604.194 135.706 603.843 135.528C603.496 135.35 603.238 135.139 603.069 134.893C602.904 134.648 602.821 134.356 602.821 134.017C602.821 133.454 603.058 132.978 603.532 132.589C604.01 132.2 604.62 132.005 605.36 132.005C606.139 132.005 606.77 132.206 607.252 132.608C607.739 133.01 607.982 133.524 607.982 134.15H606.801C606.801 133.829 606.664 133.552 606.389 133.319C606.118 133.086 605.775 132.97 605.36 132.97C604.933 132.97 604.599 133.063 604.357 133.249C604.116 133.435 603.996 133.679 603.996 133.979C603.996 134.263 604.108 134.476 604.332 134.62C604.556 134.764 604.96 134.902 605.544 135.033C606.133 135.164 606.609 135.32 606.973 135.502C607.337 135.684 607.605 135.904 607.779 136.163C607.957 136.417 608.045 136.728 608.045 137.096C608.045 137.709 607.8 138.202 607.309 138.575C606.818 138.943 606.181 139.127 605.398 139.127C604.848 139.127 604.362 139.03 603.938 138.835C603.515 138.64 603.183 138.369 602.942 138.022C602.705 137.671 602.586 137.292 602.586 136.886H603.761C603.782 137.28 603.938 137.593 604.23 137.826C604.527 138.054 604.916 138.168 605.398 138.168C605.843 138.168 606.198 138.08 606.465 137.902C606.736 137.72 606.871 137.479 606.871 137.178ZM613.574 137.178C613.574 136.861 613.454 136.615 613.212 136.442C612.975 136.264 612.559 136.112 611.962 135.985C611.369 135.858 610.898 135.706 610.546 135.528C610.199 135.35 609.941 135.139 609.772 134.893C609.607 134.648 609.524 134.356 609.524 134.017C609.524 133.454 609.761 132.978 610.235 132.589C610.714 132.2 611.323 132.005 612.063 132.005C612.842 132.005 613.473 132.206 613.955 132.608C614.442 133.01 614.685 133.524 614.685 134.15H613.504C613.504 133.829 613.367 133.552 613.092 133.319C612.821 133.086 612.478 132.97 612.063 132.97C611.636 132.97 611.302 133.063 611.061 133.249C610.819 133.435 610.699 133.679 610.699 133.979C610.699 134.263 610.811 134.476 611.035 134.62C611.259 134.764 611.664 134.902 612.248 135.033C612.836 135.164 613.312 135.32 613.676 135.502C614.04 135.684 614.308 135.904 614.482 136.163C614.66 136.417 614.749 136.728 614.749 137.096C614.749 137.709 614.503 138.202 614.012 138.575C613.521 138.943 612.884 139.127 612.102 139.127C611.551 139.127 611.065 139.03 610.642 138.835C610.218 138.64 609.886 138.369 609.645 138.022C609.408 137.671 609.29 137.292 609.29 136.886H610.464C610.485 137.28 610.642 137.593 610.934 137.826C611.23 138.054 611.619 138.168 612.102 138.168C612.546 138.168 612.901 138.08 613.168 137.902C613.439 137.72 613.574 137.479 613.574 137.178ZM625.819 130.761H622.848V139H621.636V130.761H618.671V129.758H625.819V130.761ZM626.06 135.502C626.06 134.83 626.191 134.224 626.454 133.687C626.72 133.15 627.088 132.735 627.558 132.443C628.032 132.151 628.572 132.005 629.177 132.005C630.112 132.005 630.867 132.329 631.443 132.976C632.023 133.624 632.312 134.485 632.312 135.56V135.642C632.312 136.311 632.183 136.912 631.925 137.445C631.671 137.974 631.305 138.386 630.827 138.683C630.353 138.979 629.807 139.127 629.189 139.127C628.258 139.127 627.503 138.803 626.923 138.156C626.348 137.508 626.06 136.651 626.06 135.585V135.502ZM627.241 135.642C627.241 136.404 627.416 137.015 627.768 137.477C628.123 137.938 628.597 138.168 629.189 138.168C629.786 138.168 630.26 137.936 630.611 137.47C630.963 137 631.138 136.345 631.138 135.502C631.138 134.749 630.958 134.14 630.599 133.674C630.243 133.205 629.769 132.97 629.177 132.97C628.597 132.97 628.129 133.2 627.774 133.662C627.418 134.123 627.241 134.783 627.241 135.642ZM635.702 135.82L634.966 136.588V139H633.792V129.25H634.966V135.147L635.594 134.392L637.733 132.132H639.162L636.489 135.001L639.473 139H638.095L635.702 135.82ZM643.097 139.127C642.166 139.127 641.409 138.822 640.825 138.213C640.241 137.599 639.949 136.78 639.949 135.756V135.541C639.949 134.859 640.078 134.252 640.336 133.719C640.598 133.181 640.962 132.762 641.428 132.462C641.897 132.157 642.405 132.005 642.951 132.005C643.844 132.005 644.538 132.299 645.033 132.887C645.528 133.475 645.776 134.318 645.776 135.414V135.902H641.123C641.14 136.579 641.337 137.127 641.713 137.546C642.094 137.961 642.577 138.168 643.161 138.168C643.575 138.168 643.927 138.084 644.214 137.915C644.502 137.745 644.754 137.521 644.97 137.242L645.687 137.8C645.111 138.685 644.248 139.127 643.097 139.127ZM642.951 132.97C642.477 132.97 642.079 133.143 641.758 133.49C641.436 133.833 641.237 134.315 641.161 134.938H644.602V134.849C644.568 134.252 644.407 133.791 644.119 133.465C643.831 133.135 643.442 132.97 642.951 132.97ZM648.251 132.132L648.29 132.995C648.814 132.335 649.5 132.005 650.346 132.005C651.798 132.005 652.53 132.824 652.542 134.461V139H651.368V134.455C651.364 133.96 651.25 133.594 651.025 133.357C650.805 133.12 650.46 133.001 649.991 133.001C649.61 133.001 649.276 133.103 648.988 133.306C648.7 133.509 648.476 133.776 648.315 134.106V139H647.141V132.132H648.251Z" fill="black"/>
<path d="M384.412 200.176V196.304L382 195.435V194.178L391.242 197.707V198.773L382 202.309V201.059L384.412 200.176ZM385.415 196.672V199.814L389.738 198.24L385.415 196.672ZM385.618 204.772H382V203.553H391.242V206.962C391.242 207.973 390.984 208.765 390.468 209.336C389.951 209.911 389.268 210.199 388.417 210.199C387.52 210.199 386.828 209.918 386.342 209.355C385.859 208.796 385.618 207.994 385.618 206.949V204.772ZM386.615 204.772V206.962C386.615 207.614 386.767 208.113 387.072 208.46C387.381 208.807 387.825 208.98 388.405 208.98C388.955 208.98 389.395 208.807 389.725 208.46C390.055 208.113 390.227 207.637 390.239 207.032V204.772H386.615ZM382 213.062V211.843H391.242V213.062H382ZM385.739 221.911V219.74H382V218.515H391.242V221.574C391.242 222.615 391.005 223.415 390.531 223.974C390.057 224.536 389.368 224.818 388.462 224.818C387.886 224.818 387.385 224.661 386.958 224.348C386.53 224.039 386.211 223.608 385.999 223.053L382.076 225.224H382V223.917L385.739 221.911ZM386.735 219.74V221.612C386.735 222.217 386.892 222.698 387.205 223.053C387.518 223.413 387.937 223.593 388.462 223.593C389.033 223.593 389.471 223.421 389.776 223.079C390.081 222.74 390.235 222.249 390.239 221.606V219.74H386.735ZM381.873 229.198C381.873 228.267 382.178 227.509 382.787 226.925C383.401 226.341 384.22 226.049 385.244 226.049H385.459C386.141 226.049 386.748 226.178 387.281 226.437C387.819 226.699 388.238 227.063 388.538 227.528C388.843 227.998 388.995 228.506 388.995 229.052C388.995 229.945 388.701 230.639 388.113 231.134C387.525 231.629 386.682 231.876 385.586 231.876H385.098V227.224C384.421 227.241 383.873 227.437 383.454 227.814C383.039 228.195 382.832 228.677 382.832 229.261C382.832 229.676 382.916 230.027 383.085 230.315C383.255 230.603 383.479 230.854 383.758 231.07L383.2 231.788C382.315 231.212 381.873 230.349 381.873 229.198ZM388.03 229.052C388.03 228.578 387.857 228.18 387.51 227.858C387.167 227.537 386.685 227.338 386.062 227.262V230.702H386.151C386.748 230.668 387.209 230.507 387.535 230.22C387.865 229.932 388.03 229.543 388.03 229.052ZM383.822 237.24C384.139 237.24 384.385 237.12 384.558 236.878C384.736 236.641 384.888 236.225 385.015 235.628C385.142 235.035 385.294 234.564 385.472 234.212C385.65 233.865 385.861 233.607 386.107 233.438C386.352 233.273 386.644 233.19 386.983 233.19C387.546 233.19 388.022 233.427 388.411 233.901C388.8 234.38 388.995 234.989 388.995 235.729C388.995 236.508 388.794 237.139 388.392 237.621C387.99 238.108 387.476 238.351 386.85 238.351V237.17C387.171 237.17 387.448 237.033 387.681 236.758C387.914 236.487 388.03 236.144 388.03 235.729C388.03 235.302 387.937 234.968 387.751 234.727C387.565 234.485 387.321 234.365 387.021 234.365C386.737 234.365 386.524 234.477 386.38 234.701C386.236 234.925 386.098 235.33 385.967 235.914C385.836 236.502 385.68 236.978 385.498 237.342C385.316 237.706 385.096 237.974 384.837 238.148C384.583 238.326 384.272 238.415 383.904 238.415C383.291 238.415 382.798 238.169 382.425 237.678C382.057 237.187 381.873 236.55 381.873 235.768C381.873 235.217 381.97 234.731 382.165 234.308C382.36 233.884 382.631 233.552 382.978 233.311C383.329 233.074 383.708 232.956 384.114 232.956V234.13C383.72 234.151 383.407 234.308 383.174 234.6C382.946 234.896 382.832 235.285 382.832 235.768C382.832 236.212 382.92 236.567 383.098 236.834C383.28 237.105 383.521 237.24 383.822 237.24ZM385.358 245.746C384.313 245.746 383.471 245.507 382.832 245.029C382.193 244.551 381.873 243.903 381.873 243.086C381.873 242.253 382.138 241.597 382.667 241.119H379.359V239.944H388.868V241.017L388.106 241.074C388.699 241.552 388.995 242.217 388.995 243.067C388.995 243.893 388.684 244.544 388.062 245.022C387.44 245.505 386.575 245.746 385.466 245.746H385.358ZM385.491 244.572C386.266 244.572 386.877 244.407 387.326 244.077C387.774 243.747 387.999 243.294 387.999 242.718C387.999 242.007 387.683 241.474 387.053 241.119H383.771C383.145 241.47 382.832 242.007 382.832 242.731C382.832 243.294 383.054 243.74 383.498 244.07C383.947 244.405 384.611 244.572 385.491 244.572ZM385.498 246.933C386.17 246.933 386.776 247.064 387.313 247.327C387.85 247.593 388.265 247.961 388.557 248.431C388.849 248.905 388.995 249.445 388.995 250.05C388.995 250.985 388.671 251.74 388.024 252.316C387.376 252.896 386.515 253.186 385.44 253.186H385.358C384.689 253.186 384.088 253.056 383.555 252.798C383.026 252.544 382.614 252.178 382.317 251.7C382.021 251.226 381.873 250.68 381.873 250.062C381.873 249.132 382.197 248.376 382.844 247.796C383.492 247.221 384.349 246.933 385.415 246.933H385.498ZM385.358 248.114C384.596 248.114 383.985 248.289 383.523 248.641C383.062 248.996 382.832 249.47 382.832 250.062C382.832 250.659 383.064 251.133 383.53 251.484C384 251.836 384.655 252.011 385.498 252.011C386.251 252.011 386.86 251.831 387.326 251.472C387.795 251.116 388.03 250.642 388.03 250.05C388.03 249.47 387.8 249.002 387.338 248.647C386.877 248.292 386.217 248.114 385.358 248.114ZM388.868 255.769L388.005 255.807C388.665 256.332 388.995 257.017 388.995 257.864C388.995 259.315 388.176 260.047 386.539 260.06H382V258.886H386.545C387.04 258.882 387.406 258.767 387.643 258.543C387.88 258.323 387.999 257.978 387.999 257.508C387.999 257.127 387.897 256.793 387.694 256.505C387.491 256.218 387.224 255.993 386.894 255.833H382V254.658H388.868V255.769ZM383.822 265.83C384.139 265.83 384.385 265.709 384.558 265.468C384.736 265.231 384.888 264.814 385.015 264.218C385.142 263.625 385.294 263.153 385.472 262.802C385.65 262.455 385.861 262.197 386.107 262.028C386.352 261.863 386.644 261.78 386.983 261.78C387.546 261.78 388.022 262.017 388.411 262.491C388.8 262.969 388.995 263.579 388.995 264.319C388.995 265.098 388.794 265.729 388.392 266.211C387.99 266.698 387.476 266.941 386.85 266.941V265.76C387.171 265.76 387.448 265.623 387.681 265.348C387.914 265.077 388.03 264.734 388.03 264.319C388.03 263.892 387.937 263.558 387.751 263.316C387.565 263.075 387.321 262.955 387.021 262.955C386.737 262.955 386.524 263.067 386.38 263.291C386.236 263.515 386.098 263.919 385.967 264.503C385.836 265.092 385.68 265.568 385.498 265.932C385.316 266.296 385.096 266.564 384.837 266.738C384.583 266.916 384.272 267.004 383.904 267.004C383.291 267.004 382.798 266.759 382.425 266.268C382.057 265.777 381.873 265.14 381.873 264.357C381.873 263.807 381.97 263.321 382.165 262.897C382.36 262.474 382.631 262.142 382.978 261.901C383.329 261.664 383.708 261.545 384.114 261.545V262.72C383.72 262.741 383.407 262.897 383.174 263.189C382.946 263.486 382.832 263.875 382.832 264.357C382.832 264.802 382.92 265.157 383.098 265.424C383.28 265.695 383.521 265.83 383.822 265.83ZM381.873 271.384C381.873 270.453 382.178 269.696 382.787 269.112C383.401 268.528 384.22 268.236 385.244 268.236H385.459C386.141 268.236 386.748 268.365 387.281 268.623C387.819 268.885 388.238 269.249 388.538 269.715C388.843 270.185 388.995 270.692 388.995 271.238C388.995 272.131 388.701 272.825 388.113 273.32C387.525 273.815 386.682 274.063 385.586 274.063H385.098V269.41C384.421 269.427 383.873 269.624 383.454 270C383.039 270.381 382.832 270.864 382.832 271.448C382.832 271.862 382.916 272.214 383.085 272.501C383.255 272.789 383.479 273.041 383.758 273.257L383.2 273.974C382.315 273.399 381.873 272.535 381.873 271.384ZM388.03 271.238C388.03 270.764 387.857 270.367 387.51 270.045C387.167 269.723 386.685 269.524 386.062 269.448V272.889H386.151C386.748 272.855 387.209 272.694 387.535 272.406C387.865 272.118 388.03 271.729 388.03 271.238Z" fill="black"/>
<path d="M450.412 171.176V167.304L448 166.435V165.178L457.242 168.707V169.773L448 173.309V172.059L450.412 171.176ZM451.415 167.672V170.814L455.738 169.24L451.415 167.672ZM451.618 175.772H448V174.553H457.242V177.962C457.242 178.973 456.984 179.765 456.468 180.336C455.951 180.911 455.268 181.199 454.417 181.199C453.52 181.199 452.828 180.918 452.342 180.355C451.859 179.796 451.618 178.994 451.618 177.949V175.772ZM452.615 175.772V177.962C452.615 178.614 452.767 179.113 453.072 179.46C453.381 179.807 453.825 179.98 454.405 179.98C454.955 179.98 455.395 179.807 455.725 179.46C456.055 179.113 456.227 178.637 456.239 178.032V175.772H452.615ZM448 184.062V182.843H457.242V184.062H448ZM451.739 192.911V190.74H448V189.515H457.242V192.574C457.242 193.615 457.005 194.415 456.531 194.974C456.057 195.536 455.368 195.818 454.462 195.818C453.886 195.818 453.385 195.661 452.958 195.348C452.53 195.039 452.211 194.608 451.999 194.053L448.076 196.224H448V194.917L451.739 192.911ZM452.735 190.74V192.612C452.735 193.217 452.892 193.698 453.205 194.053C453.518 194.413 453.937 194.593 454.462 194.593C455.033 194.593 455.471 194.421 455.776 194.079C456.081 193.74 456.235 193.249 456.239 192.606V190.74H452.735ZM447.873 200.198C447.873 199.267 448.178 198.509 448.787 197.925C449.401 197.341 450.22 197.049 451.244 197.049H451.459C452.141 197.049 452.748 197.178 453.281 197.437C453.819 197.699 454.238 198.063 454.538 198.528C454.843 198.998 454.995 199.506 454.995 200.052C454.995 200.945 454.701 201.639 454.113 202.134C453.525 202.629 452.682 202.876 451.586 202.876H451.098V198.224C450.421 198.241 449.873 198.437 449.454 198.814C449.039 199.195 448.832 199.677 448.832 200.261C448.832 200.676 448.916 201.027 449.085 201.315C449.255 201.603 449.479 201.854 449.758 202.07L449.2 202.788C448.315 202.212 447.873 201.349 447.873 200.198ZM454.03 200.052C454.03 199.578 453.857 199.18 453.51 198.858C453.167 198.537 452.685 198.338 452.062 198.262V201.702H452.151C452.748 201.668 453.209 201.507 453.535 201.22C453.865 200.932 454.03 200.543 454.03 200.052ZM451.491 203.956C452.57 203.956 453.423 204.203 454.049 204.698C454.68 205.193 454.995 205.858 454.995 206.691C454.995 207.504 454.722 208.145 454.176 208.615L454.868 208.666V209.745H445.359V208.57H448.635C448.127 208.096 447.873 207.466 447.873 206.679C447.873 205.849 448.195 205.187 448.838 204.692C449.485 204.201 450.342 203.956 451.409 203.956H451.491ZM451.358 205.13C450.571 205.13 449.953 205.295 449.504 205.625C449.056 205.959 448.832 206.408 448.832 206.971C448.832 207.669 449.14 208.202 449.758 208.57H453.123C453.728 208.198 454.03 207.669 454.03 206.983C454.03 206.416 453.804 205.966 453.351 205.631C452.903 205.297 452.238 205.13 451.358 205.13ZM448.679 215.87C448.142 215.413 447.873 214.742 447.873 213.858C447.873 213.126 448.085 212.567 448.508 212.182C448.935 211.801 449.566 211.609 450.399 211.604H454.868V212.779H450.431C449.39 212.779 448.87 213.202 448.87 214.048C448.87 214.945 449.204 215.542 449.873 215.838H454.868V217.013H448V215.896L448.679 215.87ZM447.873 221.653C447.873 220.722 448.178 219.964 448.787 219.38C449.401 218.796 450.22 218.504 451.244 218.504H451.459C452.141 218.504 452.748 218.633 453.281 218.892C453.819 219.154 454.238 219.518 454.538 219.983C454.843 220.453 454.995 220.961 454.995 221.507C454.995 222.4 454.701 223.094 454.113 223.589C453.525 224.084 452.682 224.332 451.586 224.332H451.098V219.679C450.421 219.696 449.873 219.892 449.454 220.269C449.039 220.65 448.832 221.132 448.832 221.716C448.832 222.131 448.916 222.482 449.085 222.77C449.255 223.058 449.479 223.31 449.758 223.525L449.2 224.243C448.315 223.667 447.873 222.804 447.873 221.653ZM454.03 221.507C454.03 221.033 453.857 220.635 453.51 220.313C453.167 219.992 452.685 219.793 452.062 219.717V223.157H452.151C452.748 223.123 453.209 222.963 453.535 222.675C453.865 222.387 454.03 221.998 454.03 221.507ZM449.822 229.695C450.139 229.695 450.385 229.575 450.558 229.333C450.736 229.097 450.888 228.68 451.015 228.083C451.142 227.491 451.294 227.019 451.472 226.667C451.65 226.32 451.861 226.062 452.107 225.893C452.352 225.728 452.644 225.646 452.983 225.646C453.546 225.646 454.022 225.882 454.411 226.356C454.8 226.835 454.995 227.444 454.995 228.185C454.995 228.963 454.794 229.594 454.392 230.076C453.99 230.563 453.476 230.806 452.85 230.806V229.625C453.171 229.625 453.448 229.488 453.681 229.213C453.914 228.942 454.03 228.599 454.03 228.185C454.03 227.757 453.937 227.423 453.751 227.182C453.565 226.94 453.321 226.82 453.021 226.82C452.737 226.82 452.524 226.932 452.38 227.156C452.236 227.381 452.098 227.785 451.967 228.369C451.836 228.957 451.68 229.433 451.498 229.797C451.316 230.161 451.096 230.43 450.837 230.603C450.583 230.781 450.272 230.87 449.904 230.87C449.291 230.87 448.798 230.624 448.425 230.133C448.057 229.642 447.873 229.006 447.873 228.223C447.873 227.673 447.97 227.186 448.165 226.763C448.36 226.34 448.631 226.007 448.978 225.766C449.329 225.529 449.708 225.411 450.114 225.411V226.585C449.72 226.606 449.407 226.763 449.174 227.055C448.946 227.351 448.832 227.74 448.832 228.223C448.832 228.667 448.92 229.022 449.098 229.289C449.28 229.56 449.521 229.695 449.822 229.695ZM456.531 233.993H454.868V235.275H453.96V233.993H449.701C449.426 233.993 449.219 234.05 449.079 234.164C448.944 234.278 448.876 234.473 448.876 234.748C448.876 234.883 448.901 235.07 448.952 235.307H448C447.915 234.998 447.873 234.697 447.873 234.405C447.873 233.881 448.032 233.485 448.349 233.218C448.667 232.952 449.117 232.818 449.701 232.818H453.96V231.568H454.868V232.818H456.531V233.993Z" fill="black"/>
<path d="M261.176 138.588H257.304L256.435 141H255.178L258.707 131.758H259.773L263.309 141H262.059L261.176 138.588ZM257.672 137.585H260.814L259.24 133.262L257.672 137.585ZM265.772 137.382V141H264.553V131.758H267.962C268.973 131.758 269.765 132.016 270.336 132.532C270.911 133.049 271.199 133.732 271.199 134.583C271.199 135.48 270.918 136.172 270.355 136.658C269.796 137.141 268.994 137.382 267.949 137.382H265.772ZM265.772 136.385H267.962C268.614 136.385 269.113 136.233 269.46 135.928C269.807 135.619 269.98 135.175 269.98 134.595C269.98 134.045 269.807 133.605 269.46 133.275C269.113 132.945 268.637 132.773 268.032 132.761H265.772V136.385ZM274.062 141H272.843V131.758H274.062V141ZM282.911 137.261H280.74V141H279.515V131.758H282.574C283.615 131.758 284.415 131.995 284.974 132.469C285.536 132.943 285.818 133.632 285.818 134.538C285.818 135.114 285.661 135.615 285.348 136.042C285.039 136.47 284.608 136.789 284.053 137.001L286.224 140.924V141H284.917L282.911 137.261ZM280.74 136.265H282.612C283.217 136.265 283.698 136.108 284.053 135.795C284.413 135.482 284.593 135.063 284.593 134.538C284.593 133.967 284.421 133.529 284.079 133.224C283.74 132.919 283.249 132.765 282.606 132.761H280.74V136.265ZM290.198 141.127C289.267 141.127 288.509 140.822 287.925 140.213C287.341 139.599 287.049 138.78 287.049 137.756V137.541C287.049 136.859 287.178 136.252 287.437 135.719C287.699 135.181 288.063 134.762 288.528 134.462C288.998 134.157 289.506 134.005 290.052 134.005C290.945 134.005 291.639 134.299 292.134 134.887C292.629 135.475 292.876 136.318 292.876 137.414V137.902H288.224C288.241 138.579 288.437 139.127 288.814 139.546C289.195 139.961 289.677 140.168 290.261 140.168C290.676 140.168 291.027 140.084 291.315 139.915C291.603 139.745 291.854 139.521 292.07 139.242L292.788 139.8C292.212 140.685 291.349 141.127 290.198 141.127ZM290.052 134.97C289.578 134.97 289.18 135.143 288.858 135.49C288.537 135.833 288.338 136.315 288.262 136.938H291.702V136.849C291.668 136.252 291.507 135.791 291.22 135.465C290.932 135.135 290.543 134.97 290.052 134.97ZM298.24 139.178C298.24 138.861 298.12 138.615 297.878 138.442C297.641 138.264 297.225 138.112 296.628 137.985C296.035 137.858 295.564 137.706 295.212 137.528C294.865 137.35 294.607 137.139 294.438 136.893C294.273 136.648 294.19 136.356 294.19 136.017C294.19 135.454 294.427 134.978 294.901 134.589C295.38 134.2 295.989 134.005 296.729 134.005C297.508 134.005 298.139 134.206 298.621 134.608C299.108 135.01 299.351 135.524 299.351 136.15H298.17C298.17 135.829 298.033 135.552 297.758 135.319C297.487 135.086 297.144 134.97 296.729 134.97C296.302 134.97 295.968 135.063 295.727 135.249C295.485 135.435 295.365 135.679 295.365 135.979C295.365 136.263 295.477 136.476 295.701 136.62C295.925 136.764 296.33 136.902 296.914 137.033C297.502 137.164 297.978 137.32 298.342 137.502C298.706 137.684 298.974 137.904 299.148 138.163C299.326 138.417 299.415 138.728 299.415 139.096C299.415 139.709 299.169 140.202 298.678 140.575C298.187 140.943 297.55 141.127 296.768 141.127C296.217 141.127 295.731 141.03 295.308 140.835C294.884 140.64 294.552 140.369 294.311 140.022C294.074 139.671 293.956 139.292 293.956 138.886H295.13C295.151 139.28 295.308 139.593 295.6 139.826C295.896 140.054 296.285 140.168 296.768 140.168C297.212 140.168 297.567 140.08 297.834 139.902C298.105 139.72 298.24 139.479 298.24 139.178ZM306.746 137.642C306.746 138.687 306.507 139.529 306.029 140.168C305.551 140.807 304.903 141.127 304.086 141.127C303.253 141.127 302.597 140.862 302.119 140.333V143.641H300.944V134.132H302.017L302.074 134.894C302.552 134.301 303.217 134.005 304.067 134.005C304.893 134.005 305.544 134.316 306.022 134.938C306.505 135.56 306.746 136.425 306.746 137.534V137.642ZM305.572 137.509C305.572 136.734 305.407 136.123 305.077 135.674C304.747 135.226 304.294 135.001 303.718 135.001C303.007 135.001 302.474 135.317 302.119 135.947V139.229C302.47 139.855 303.007 140.168 303.731 140.168C304.294 140.168 304.74 139.946 305.07 139.502C305.405 139.053 305.572 138.389 305.572 137.509ZM307.933 137.502C307.933 136.83 308.064 136.224 308.327 135.687C308.593 135.15 308.961 134.735 309.431 134.443C309.905 134.151 310.445 134.005 311.05 134.005C311.985 134.005 312.74 134.329 313.316 134.976C313.896 135.624 314.186 136.485 314.186 137.56V137.642C314.186 138.311 314.056 138.912 313.798 139.445C313.544 139.974 313.178 140.386 312.7 140.683C312.226 140.979 311.68 141.127 311.062 141.127C310.132 141.127 309.376 140.803 308.796 140.156C308.221 139.508 307.933 138.651 307.933 137.585V137.502ZM309.114 137.642C309.114 138.404 309.289 139.015 309.641 139.477C309.996 139.938 310.47 140.168 311.062 140.168C311.659 140.168 312.133 139.936 312.484 139.47C312.836 139 313.011 138.345 313.011 137.502C313.011 136.749 312.831 136.14 312.472 135.674C312.116 135.205 311.642 134.97 311.05 134.97C310.47 134.97 310.002 135.2 309.647 135.662C309.292 136.123 309.114 136.783 309.114 137.642ZM316.769 134.132L316.807 134.995C317.332 134.335 318.017 134.005 318.864 134.005C320.315 134.005 321.047 134.824 321.06 136.461V141H319.886V136.455C319.882 135.96 319.767 135.594 319.543 135.357C319.323 135.12 318.978 135.001 318.508 135.001C318.127 135.001 317.793 135.103 317.505 135.306C317.218 135.509 316.993 135.776 316.833 136.106V141H315.658V134.132H316.769ZM326.83 139.178C326.83 138.861 326.709 138.615 326.468 138.442C326.231 138.264 325.814 138.112 325.218 137.985C324.625 137.858 324.153 137.706 323.802 137.528C323.455 137.35 323.197 137.139 323.028 136.893C322.863 136.648 322.78 136.356 322.78 136.017C322.78 135.454 323.017 134.978 323.491 134.589C323.969 134.2 324.579 134.005 325.319 134.005C326.098 134.005 326.729 134.206 327.211 134.608C327.698 135.01 327.941 135.524 327.941 136.15H326.76C326.76 135.829 326.623 135.552 326.348 135.319C326.077 135.086 325.734 134.97 325.319 134.97C324.892 134.97 324.558 135.063 324.316 135.249C324.075 135.435 323.955 135.679 323.955 135.979C323.955 136.263 324.067 136.476 324.291 136.62C324.515 136.764 324.919 136.902 325.503 137.033C326.092 137.164 326.568 137.32 326.932 137.502C327.296 137.684 327.564 137.904 327.738 138.163C327.916 138.417 328.004 138.728 328.004 139.096C328.004 139.709 327.759 140.202 327.268 140.575C326.777 140.943 326.14 141.127 325.357 141.127C324.807 141.127 324.321 141.03 323.897 140.835C323.474 140.64 323.142 140.369 322.901 140.022C322.664 139.671 322.545 139.292 322.545 138.886H323.72C323.741 139.28 323.897 139.593 324.189 139.826C324.486 140.054 324.875 140.168 325.357 140.168C325.802 140.168 326.157 140.08 326.424 139.902C326.695 139.72 326.83 139.479 326.83 139.178ZM332.384 141.127C331.453 141.127 330.696 140.822 330.112 140.213C329.528 139.599 329.236 138.78 329.236 137.756V137.541C329.236 136.859 329.365 136.252 329.623 135.719C329.885 135.181 330.249 134.762 330.715 134.462C331.185 134.157 331.692 134.005 332.238 134.005C333.131 134.005 333.825 134.299 334.32 134.887C334.815 135.475 335.063 136.318 335.063 137.414V137.902H330.41C330.427 138.579 330.624 139.127 331 139.546C331.381 139.961 331.864 140.168 332.448 140.168C332.862 140.168 333.214 140.084 333.501 139.915C333.789 139.745 334.041 139.521 334.257 139.242L334.974 139.8C334.399 140.685 333.535 141.127 332.384 141.127ZM332.238 134.97C331.764 134.97 331.367 135.143 331.045 135.49C330.723 135.833 330.524 136.315 330.448 136.938H333.889V136.849C333.855 136.252 333.694 135.791 333.406 135.465C333.118 135.135 332.729 134.97 332.238 134.97Z" fill="black"/>
<path d="M400.997 101.269V106H399.403V93.9141H403.86C405.183 93.9141 406.218 94.2516 406.965 94.9268C407.717 95.6019 408.094 96.4956 408.094 97.6079C408.094 98.7811 407.726 99.6859 406.99 100.322C406.259 100.953 405.211 101.269 403.844 101.269H400.997ZM400.997 99.9653H403.86C404.713 99.9653 405.366 99.7661 405.819 99.3677C406.273 98.9637 406.5 98.3826 406.5 97.6245C406.5 96.9051 406.273 96.3296 405.819 95.8979C405.366 95.4663 404.743 95.2422 403.952 95.2256H400.997V99.9653ZM414.228 98.3965C413.996 98.3577 413.744 98.3384 413.473 98.3384C412.465 98.3384 411.782 98.7673 411.422 99.625V106H409.887V97.0186H411.381L411.406 98.0562C411.909 97.2537 412.623 96.8525 413.547 96.8525C413.846 96.8525 414.073 96.8913 414.228 96.9688V98.3965ZM415.075 101.426C415.075 100.546 415.246 99.755 415.589 99.0522C415.938 98.3494 416.419 97.8071 417.034 97.4253C417.653 97.0435 418.359 96.8525 419.15 96.8525C420.373 96.8525 421.361 97.2759 422.114 98.1226C422.872 98.9692 423.251 100.095 423.251 101.501V101.609C423.251 102.483 423.082 103.269 422.745 103.966C422.413 104.658 421.934 105.198 421.309 105.585C420.689 105.972 419.975 106.166 419.167 106.166C417.95 106.166 416.962 105.743 416.204 104.896C415.451 104.049 415.075 102.929 415.075 101.534V101.426ZM416.619 101.609C416.619 102.605 416.848 103.405 417.308 104.008C417.772 104.611 418.392 104.913 419.167 104.913C419.947 104.913 420.567 104.608 421.026 104C421.486 103.385 421.715 102.528 421.715 101.426C421.715 100.441 421.48 99.6444 421.01 99.0356C420.545 98.4214 419.925 98.1143 419.15 98.1143C418.392 98.1143 417.781 98.4159 417.316 99.019C416.851 99.6222 416.619 100.486 416.619 101.609ZM428.007 100.297L430 97.0186H431.792L428.854 101.459L431.884 106H430.107L428.032 102.638L425.957 106H424.172L427.202 101.459L424.264 97.0186H426.04L428.007 100.297ZM436.366 103.75L438.458 97.0186H440.102L436.491 107.386C435.932 108.88 435.044 109.627 433.826 109.627L433.536 109.603L432.963 109.495V108.25L433.378 108.283C433.898 108.283 434.302 108.178 434.59 107.967C434.883 107.757 435.124 107.372 435.312 106.813L435.652 105.9L432.448 97.0186H434.125L436.366 103.75Z" fill="black"/>
<path d="M701.127 93V80.9141H705.079C706.39 80.9141 707.375 81.1852 708.034 81.7275C708.698 82.2699 709.03 83.0723 709.03 84.1348C709.03 84.6992 708.869 85.2 708.548 85.6372C708.227 86.0688 707.79 86.4036 707.237 86.6416C707.89 86.8242 708.404 87.1729 708.781 87.6875C709.163 88.1966 709.354 88.8053 709.354 89.5137C709.354 90.5983 709.002 91.4505 708.299 92.0703C707.597 92.6901 706.603 93 705.319 93H701.127ZM702.721 87.3472V91.6968H705.353C706.094 91.6968 706.678 91.5059 707.104 91.124C707.536 90.7367 707.751 90.2054 707.751 89.5303C707.751 88.0749 706.96 87.3472 705.377 87.3472H702.721ZM702.721 86.0688H705.128C705.826 86.0688 706.382 85.8945 706.797 85.5459C707.217 85.1973 707.428 84.7241 707.428 84.1265C707.428 83.4624 707.234 82.981 706.847 82.6821C706.459 82.3778 705.87 82.2256 705.079 82.2256H702.721V86.0688ZM715.82 85.3965C715.587 85.3577 715.336 85.3384 715.064 85.3384C714.057 85.3384 713.374 85.7673 713.014 86.625V93H711.479V84.0186H712.973L712.998 85.0562C713.501 84.2537 714.215 83.8525 715.139 83.8525C715.438 83.8525 715.665 83.8913 715.82 83.9688V85.3965ZM718.908 93H717.372V84.0186H718.908V93ZM717.248 81.6362C717.248 81.3872 717.322 81.1769 717.472 81.0054C717.627 80.8338 717.854 80.748 718.152 80.748C718.451 80.748 718.678 80.8338 718.833 81.0054C718.988 81.1769 719.065 81.3872 719.065 81.6362C719.065 81.8853 718.988 82.0928 718.833 82.2588C718.678 82.4248 718.451 82.5078 718.152 82.5078C717.854 82.5078 717.627 82.4248 717.472 82.2588C717.322 82.0928 717.248 81.8853 717.248 81.6362ZM721.008 88.4346C721.008 87.0345 721.332 85.9222 721.979 85.0977C722.626 84.2676 723.484 83.8525 724.552 83.8525C725.648 83.8525 726.503 84.2399 727.117 85.0146L727.192 84.0186H728.595V92.7842C728.595 93.9463 728.249 94.8621 727.557 95.5317C726.871 96.2013 725.947 96.5361 724.785 96.5361C724.137 96.5361 723.504 96.3978 722.884 96.1211C722.264 95.8444 721.791 95.4653 721.464 94.9839L722.261 94.0625C722.92 94.876 723.725 95.2827 724.677 95.2827C725.424 95.2827 726.005 95.0724 726.42 94.6519C726.84 94.2313 727.051 93.6392 727.051 92.8755V92.1035C726.437 92.8118 725.598 93.166 724.536 93.166C723.484 93.166 722.632 92.7427 721.979 91.896C721.332 91.0493 721.008 89.8955 721.008 88.4346ZM722.552 88.6089C722.552 89.6216 722.759 90.4185 723.174 90.9995C723.589 91.575 724.17 91.8628 724.917 91.8628C725.886 91.8628 726.597 91.4229 727.051 90.543V86.4424C726.58 85.5846 725.875 85.1558 724.934 85.1558C724.187 85.1558 723.603 85.4463 723.183 86.0273C722.762 86.6084 722.552 87.4689 722.552 88.6089ZM732.455 85.106C733.135 84.2703 734.021 83.8525 735.111 83.8525C737.009 83.8525 737.966 84.9233 737.983 87.0649V93H736.447V87.0566C736.442 86.4092 736.292 85.9305 735.999 85.6206C735.711 85.3107 735.26 85.1558 734.646 85.1558C734.148 85.1558 733.711 85.2886 733.334 85.5542C732.958 85.8198 732.665 86.1685 732.455 86.6001V93H730.919V80.25H732.455V85.106ZM742.366 81.8438V84.0186H744.042V85.2056H742.366V90.7754C742.366 91.1351 742.44 91.4062 742.59 91.5889C742.739 91.766 742.994 91.8545 743.354 91.8545C743.531 91.8545 743.774 91.8213 744.084 91.7549V93C743.68 93.1107 743.287 93.166 742.905 93.166C742.219 93.166 741.702 92.9585 741.353 92.5435C741.004 92.1284 740.83 91.5391 740.83 90.7754V85.2056H739.195V84.0186H740.83V81.8438H742.366ZM749.446 91.9126C749.994 91.9126 750.473 91.7466 750.882 91.4146C751.292 91.0825 751.519 90.6675 751.563 90.1694H753.016C752.988 90.6841 752.811 91.1738 752.484 91.6387C752.158 92.1035 751.721 92.4743 751.173 92.751C750.631 93.0277 750.055 93.166 749.446 93.166C748.223 93.166 747.249 92.7593 746.524 91.9458C745.805 91.1268 745.445 90.009 745.445 88.5923V88.335C745.445 87.4606 745.606 86.6831 745.927 86.0024C746.248 85.3218 746.707 84.7933 747.305 84.417C747.908 84.0407 748.619 83.8525 749.438 83.8525C750.445 83.8525 751.281 84.1541 751.945 84.7573C752.614 85.3605 752.971 86.1436 753.016 87.1064H751.563C751.519 86.5254 751.297 86.0495 750.899 85.6787C750.506 85.3024 750.019 85.1143 749.438 85.1143C748.658 85.1143 748.052 85.3965 747.62 85.9609C747.194 86.5199 746.981 87.3306 746.981 88.3931V88.6836C746.981 89.7184 747.194 90.5153 747.62 91.0742C748.046 91.6331 748.655 91.9126 749.446 91.9126ZM754.335 88.4263C754.335 87.5464 754.507 86.755 754.85 86.0522C755.199 85.3494 755.68 84.8071 756.294 84.4253C756.914 84.0435 757.62 83.8525 758.411 83.8525C759.634 83.8525 760.622 84.2759 761.375 85.1226C762.133 85.9692 762.512 87.0954 762.512 88.501V88.6089C762.512 89.4832 762.343 90.269 762.005 90.9663C761.673 91.658 761.195 92.1976 760.569 92.585C759.95 92.9723 759.236 93.166 758.428 93.166C757.21 93.166 756.222 92.7427 755.464 91.896C754.712 91.0493 754.335 89.9287 754.335 88.5342V88.4263ZM755.879 88.6089C755.879 89.605 756.109 90.4046 756.568 91.0078C757.033 91.611 757.653 91.9126 758.428 91.9126C759.208 91.9126 759.828 91.6082 760.287 90.9995C760.746 90.3853 760.976 89.5275 760.976 88.4263C760.976 87.4412 760.741 86.6444 760.271 86.0356C759.806 85.4214 759.186 85.1143 758.411 85.1143C757.653 85.1143 757.042 85.4159 756.577 86.019C756.112 86.6222 755.879 87.4855 755.879 88.6089ZM767.268 90.9165L769.493 84.0186H771.062L767.841 93H766.67L763.417 84.0186H764.985L767.268 90.9165ZM776.15 93.166C774.932 93.166 773.942 92.7676 773.178 91.9707C772.415 91.1683 772.033 90.0975 772.033 88.7583V88.4761C772.033 87.5851 772.201 86.791 772.539 86.0938C772.882 85.391 773.358 84.8431 773.967 84.4502C774.581 84.0518 775.245 83.8525 775.959 83.8525C777.127 83.8525 778.034 84.2371 778.682 85.0063C779.329 85.7756 779.653 86.8768 779.653 88.3101V88.9492H773.568C773.59 89.8346 773.848 90.5513 774.34 91.0991C774.838 91.6414 775.469 91.9126 776.233 91.9126C776.775 91.9126 777.235 91.8019 777.611 91.5806C777.987 91.3592 778.316 91.0659 778.599 90.7007L779.537 91.4312C778.784 92.5877 777.655 93.166 776.15 93.166ZM775.959 85.1143C775.339 85.1143 774.819 85.3411 774.398 85.7949C773.978 86.2432 773.718 86.874 773.618 87.6875H778.117V87.5713C778.073 86.791 777.863 86.1878 777.486 85.7617C777.11 85.3301 776.601 85.1143 775.959 85.1143ZM680.16 114.846H675.096L673.959 118H672.315L676.931 105.914H678.325L682.949 118H681.313L680.16 114.846ZM675.578 113.534H679.687L677.628 107.881L675.578 113.534ZM687.938 116.913C688.485 116.913 688.964 116.747 689.374 116.415C689.783 116.083 690.01 115.667 690.054 115.169H691.507C691.479 115.684 691.302 116.174 690.976 116.639C690.649 117.104 690.212 117.474 689.664 117.751C689.122 118.028 688.546 118.166 687.938 118.166C686.715 118.166 685.741 117.759 685.016 116.946C684.296 116.127 683.937 115.009 683.937 113.592V113.335C683.937 112.461 684.097 111.683 684.418 111.002C684.739 110.322 685.198 109.793 685.796 109.417C686.399 109.041 687.11 108.853 687.929 108.853C688.936 108.853 689.772 109.154 690.436 109.757C691.106 110.361 691.463 111.144 691.507 112.106H690.054C690.01 111.525 689.789 111.049 689.39 110.679C688.997 110.302 688.51 110.114 687.929 110.114C687.149 110.114 686.543 110.396 686.111 110.961C685.685 111.52 685.472 112.331 685.472 113.393V113.684C685.472 114.718 685.685 115.515 686.111 116.074C686.537 116.633 687.146 116.913 687.938 116.913ZM696.836 116.913C697.384 116.913 697.862 116.747 698.272 116.415C698.681 116.083 698.908 115.667 698.953 115.169H700.405C700.378 115.684 700.201 116.174 699.874 116.639C699.548 117.104 699.11 117.474 698.562 117.751C698.02 118.028 697.445 118.166 696.836 118.166C695.613 118.166 694.639 117.759 693.914 116.946C693.195 116.127 692.835 115.009 692.835 113.592V113.335C692.835 112.461 692.995 111.683 693.316 111.002C693.637 110.322 694.097 109.793 694.694 109.417C695.298 109.041 696.009 108.853 696.828 108.853C697.835 108.853 698.67 109.154 699.334 109.757C700.004 110.361 700.361 111.144 700.405 112.106H698.953C698.908 111.525 698.687 111.049 698.289 110.679C697.896 110.302 697.409 110.114 696.828 110.114C696.047 110.114 695.441 110.396 695.01 110.961C694.584 111.52 694.371 112.331 694.371 113.393V113.684C694.371 114.718 694.584 115.515 695.01 116.074C695.436 116.633 696.045 116.913 696.836 116.913ZM705.859 118.166C704.641 118.166 703.651 117.768 702.887 116.971C702.124 116.168 701.742 115.097 701.742 113.758V113.476C701.742 112.585 701.91 111.791 702.248 111.094C702.591 110.391 703.067 109.843 703.676 109.45C704.29 109.052 704.954 108.853 705.668 108.853C706.836 108.853 707.743 109.237 708.391 110.006C709.038 110.776 709.362 111.877 709.362 113.31V113.949H703.277C703.299 114.835 703.557 115.551 704.049 116.099C704.547 116.641 705.178 116.913 705.942 116.913C706.484 116.913 706.944 116.802 707.32 116.581C707.696 116.359 708.025 116.066 708.308 115.701L709.246 116.431C708.493 117.588 707.364 118.166 705.859 118.166ZM705.668 110.114C705.048 110.114 704.528 110.341 704.107 110.795C703.687 111.243 703.427 111.874 703.327 112.688H707.826V112.571C707.782 111.791 707.572 111.188 707.195 110.762C706.819 110.33 706.31 110.114 705.668 110.114ZM716.376 115.618C716.376 115.203 716.218 114.882 715.903 114.655C715.593 114.422 715.048 114.223 714.268 114.057C713.493 113.891 712.876 113.692 712.417 113.459C711.963 113.227 711.625 112.95 711.404 112.629C711.188 112.308 711.08 111.927 711.08 111.484C711.08 110.748 711.39 110.125 712.01 109.616C712.635 109.107 713.432 108.853 714.4 108.853C715.419 108.853 716.243 109.115 716.874 109.641C717.51 110.167 717.829 110.839 717.829 111.658H716.285C716.285 111.238 716.105 110.875 715.745 110.571C715.391 110.266 714.943 110.114 714.4 110.114C713.841 110.114 713.404 110.236 713.089 110.479C712.773 110.723 712.616 111.041 712.616 111.434C712.616 111.805 712.762 112.084 713.056 112.272C713.349 112.461 713.877 112.64 714.641 112.812C715.41 112.984 716.033 113.188 716.509 113.426C716.985 113.664 717.336 113.952 717.563 114.29C717.795 114.622 717.912 115.028 717.912 115.51C717.912 116.312 717.591 116.957 716.949 117.444C716.307 117.925 715.474 118.166 714.45 118.166C713.731 118.166 713.094 118.039 712.541 117.784C711.988 117.53 711.553 117.175 711.238 116.722C710.928 116.262 710.773 115.767 710.773 115.236H712.309C712.336 115.75 712.541 116.16 712.923 116.464C713.31 116.763 713.819 116.913 714.45 116.913C715.031 116.913 715.496 116.796 715.845 116.564C716.199 116.326 716.376 116.011 716.376 115.618ZM725.142 115.618C725.142 115.203 724.984 114.882 724.668 114.655C724.359 114.422 723.813 114.223 723.033 114.057C722.258 113.891 721.641 113.692 721.182 113.459C720.728 113.227 720.391 112.95 720.169 112.629C719.954 112.308 719.846 111.927 719.846 111.484C719.846 110.748 720.156 110.125 720.775 109.616C721.401 109.107 722.198 108.853 723.166 108.853C724.184 108.853 725.009 109.115 725.64 109.641C726.276 110.167 726.594 110.839 726.594 111.658H725.05C725.05 111.238 724.87 110.875 724.511 110.571C724.157 110.266 723.708 110.114 723.166 110.114C722.607 110.114 722.17 110.236 721.854 110.479C721.539 110.723 721.381 111.041 721.381 111.434C721.381 111.805 721.528 112.084 721.821 112.272C722.115 112.461 722.643 112.64 723.407 112.812C724.176 112.984 724.799 113.188 725.274 113.426C725.75 113.664 726.102 113.952 726.329 114.29C726.561 114.622 726.677 115.028 726.677 115.51C726.677 116.312 726.356 116.957 725.714 117.444C725.072 117.925 724.24 118.166 723.216 118.166C722.496 118.166 721.86 118.039 721.307 117.784C720.753 117.53 720.319 117.175 720.003 116.722C719.694 116.262 719.539 115.767 719.539 115.236H721.074C721.102 115.75 721.307 116.16 721.688 116.464C722.076 116.763 722.585 116.913 723.216 116.913C723.797 116.913 724.262 116.796 724.61 116.564C724.965 116.326 725.142 116.011 725.142 115.618ZM741.154 107.226H737.269V118H735.684V107.226H731.807V105.914H741.154V107.226ZM741.469 113.426C741.469 112.546 741.641 111.755 741.984 111.052C742.333 110.349 742.814 109.807 743.428 109.425C744.048 109.043 744.754 108.853 745.545 108.853C746.768 108.853 747.756 109.276 748.508 110.123C749.266 110.969 749.646 112.095 749.646 113.501V113.609C749.646 114.483 749.477 115.269 749.139 115.966C748.807 116.658 748.328 117.198 747.703 117.585C747.083 117.972 746.369 118.166 745.562 118.166C744.344 118.166 743.356 117.743 742.598 116.896C741.846 116.049 741.469 114.929 741.469 113.534V113.426ZM743.013 113.609C743.013 114.605 743.243 115.405 743.702 116.008C744.167 116.611 744.787 116.913 745.562 116.913C746.342 116.913 746.962 116.608 747.421 116C747.88 115.385 748.11 114.528 748.11 113.426C748.11 112.441 747.875 111.644 747.404 111.036C746.939 110.421 746.32 110.114 745.545 110.114C744.787 110.114 744.175 110.416 743.71 111.019C743.246 111.622 743.013 112.486 743.013 113.609ZM754.078 113.841L753.115 114.846V118H751.58V105.25H753.115V112.961L753.937 111.974L756.734 109.019H758.602L755.107 112.771L759.009 118H757.208L754.078 113.841ZM763.749 118.166C762.531 118.166 761.541 117.768 760.777 116.971C760.013 116.168 759.631 115.097 759.631 113.758V113.476C759.631 112.585 759.8 111.791 760.138 111.094C760.481 110.391 760.957 109.843 761.565 109.45C762.18 109.052 762.844 108.853 763.558 108.853C764.725 108.853 765.633 109.237 766.28 110.006C766.928 110.776 767.251 111.877 767.251 113.31V113.949H761.167C761.189 114.835 761.446 115.551 761.939 116.099C762.437 116.641 763.068 116.913 763.832 116.913C764.374 116.913 764.833 116.802 765.209 116.581C765.586 116.359 765.915 116.066 766.197 115.701L767.135 116.431C766.383 117.588 765.254 118.166 763.749 118.166ZM763.558 110.114C762.938 110.114 762.418 110.341 761.997 110.795C761.576 111.243 761.316 111.874 761.217 112.688H765.716V112.571C765.672 111.791 765.461 111.188 765.085 110.762C764.709 110.33 764.2 110.114 763.558 110.114ZM770.489 109.019L770.539 110.147C771.225 109.284 772.121 108.853 773.228 108.853C775.126 108.853 776.083 109.923 776.1 112.065V118H774.564V112.057C774.559 111.409 774.41 110.931 774.116 110.621C773.828 110.311 773.377 110.156 772.763 110.156C772.265 110.156 771.828 110.289 771.452 110.554C771.075 110.82 770.782 111.168 770.572 111.6V118H769.036V109.019H770.489ZM789.547 114.846H784.484L783.347 118H781.703L786.318 105.914H787.713L792.336 118H790.701L789.547 114.846ZM784.965 113.534H789.074L787.016 107.881L784.965 113.534ZM795.557 113.269V118H793.963V105.914H798.421C799.743 105.914 800.778 106.252 801.525 106.927C802.278 107.602 802.654 108.496 802.654 109.608C802.654 110.781 802.286 111.686 801.55 112.322C800.82 112.953 799.771 113.269 798.404 113.269H795.557ZM795.557 111.965H798.421C799.273 111.965 799.926 111.766 800.38 111.368C800.834 110.964 801.061 110.383 801.061 109.625C801.061 108.905 800.834 108.33 800.38 107.898C799.926 107.466 799.304 107.242 798.512 107.226H795.557V111.965ZM806.398 118H804.804V105.914H806.398V118Z" fill="black"/>
<path d="M380.627 333V320.914H384.579C385.89 320.914 386.875 321.185 387.534 321.728C388.198 322.27 388.53 323.072 388.53 324.135C388.53 324.699 388.369 325.2 388.048 325.637C387.727 326.069 387.29 326.404 386.737 326.642C387.39 326.824 387.904 327.173 388.281 327.688C388.663 328.197 388.854 328.805 388.854 329.514C388.854 330.598 388.502 331.451 387.799 332.07C387.097 332.69 386.103 333 384.819 333H380.627ZM382.221 327.347V331.697H384.853C385.594 331.697 386.178 331.506 386.604 331.124C387.036 330.737 387.251 330.205 387.251 329.53C387.251 328.075 386.46 327.347 384.877 327.347H382.221ZM382.221 326.069H384.628C385.326 326.069 385.882 325.895 386.297 325.546C386.717 325.197 386.928 324.724 386.928 324.126C386.928 323.462 386.734 322.981 386.347 322.682C385.959 322.378 385.37 322.226 384.579 322.226H382.221V326.069ZM395.32 325.396C395.087 325.358 394.836 325.338 394.564 325.338C393.557 325.338 392.874 325.767 392.514 326.625V333H390.979V324.019H392.473L392.498 325.056C393.001 324.254 393.715 323.853 394.639 323.853C394.938 323.853 395.165 323.891 395.32 323.969V325.396ZM398.408 333H396.872V324.019H398.408V333ZM396.748 321.636C396.748 321.387 396.822 321.177 396.972 321.005C397.127 320.834 397.354 320.748 397.652 320.748C397.951 320.748 398.178 320.834 398.333 321.005C398.488 321.177 398.565 321.387 398.565 321.636C398.565 321.885 398.488 322.093 398.333 322.259C398.178 322.425 397.951 322.508 397.652 322.508C397.354 322.508 397.127 322.425 396.972 322.259C396.822 322.093 396.748 321.885 396.748 321.636ZM400.508 328.435C400.508 327.035 400.832 325.922 401.479 325.098C402.126 324.268 402.984 323.853 404.052 323.853C405.148 323.853 406.003 324.24 406.617 325.015L406.692 324.019H408.095V332.784C408.095 333.946 407.749 334.862 407.057 335.532C406.371 336.201 405.447 336.536 404.285 336.536C403.637 336.536 403.004 336.398 402.384 336.121C401.764 335.844 401.291 335.465 400.964 334.984L401.761 334.062C402.42 334.876 403.225 335.283 404.177 335.283C404.924 335.283 405.505 335.072 405.92 334.652C406.34 334.231 406.551 333.639 406.551 332.875V332.104C405.937 332.812 405.098 333.166 404.036 333.166C402.984 333.166 402.132 332.743 401.479 331.896C400.832 331.049 400.508 329.896 400.508 328.435ZM402.052 328.609C402.052 329.622 402.259 330.418 402.674 331C403.089 331.575 403.67 331.863 404.417 331.863C405.386 331.863 406.097 331.423 406.551 330.543V326.442C406.08 325.585 405.375 325.156 404.434 325.156C403.687 325.156 403.103 325.446 402.683 326.027C402.262 326.608 402.052 327.469 402.052 328.609ZM411.955 325.106C412.635 324.27 413.521 323.853 414.611 323.853C416.509 323.853 417.466 324.923 417.483 327.065V333H415.947V327.057C415.942 326.409 415.792 325.931 415.499 325.621C415.211 325.311 414.76 325.156 414.146 325.156C413.648 325.156 413.211 325.289 412.834 325.554C412.458 325.82 412.165 326.168 411.955 326.6V333H410.419V320.25H411.955V325.106ZM421.866 321.844V324.019H423.542V325.206H421.866V330.775C421.866 331.135 421.94 331.406 422.09 331.589C422.239 331.766 422.494 331.854 422.854 331.854C423.031 331.854 423.274 331.821 423.584 331.755V333C423.18 333.111 422.787 333.166 422.405 333.166C421.719 333.166 421.202 332.958 420.853 332.543C420.504 332.128 420.33 331.539 420.33 330.775V325.206H418.695V324.019H420.33V321.844H421.866ZM428.946 331.913C429.494 331.913 429.973 331.747 430.382 331.415C430.792 331.083 431.019 330.667 431.063 330.169H432.516C432.488 330.684 432.311 331.174 431.984 331.639C431.658 332.104 431.221 332.474 430.673 332.751C430.131 333.028 429.555 333.166 428.946 333.166C427.723 333.166 426.749 332.759 426.024 331.946C425.305 331.127 424.945 330.009 424.945 328.592V328.335C424.945 327.461 425.106 326.683 425.427 326.002C425.748 325.322 426.207 324.793 426.805 324.417C427.408 324.041 428.119 323.853 428.938 323.853C429.945 323.853 430.781 324.154 431.445 324.757C432.114 325.361 432.471 326.144 432.516 327.106H431.063C431.019 326.525 430.797 326.049 430.399 325.679C430.006 325.302 429.519 325.114 428.938 325.114C428.158 325.114 427.552 325.396 427.12 325.961C426.694 326.52 426.481 327.331 426.481 328.393V328.684C426.481 329.718 426.694 330.515 427.12 331.074C427.546 331.633 428.155 331.913 428.946 331.913ZM433.835 328.426C433.835 327.546 434.007 326.755 434.35 326.052C434.699 325.349 435.18 324.807 435.794 324.425C436.414 324.043 437.12 323.853 437.911 323.853C439.134 323.853 440.122 324.276 440.875 325.123C441.633 325.969 442.012 327.095 442.012 328.501V328.609C442.012 329.483 441.843 330.269 441.505 330.966C441.173 331.658 440.695 332.198 440.069 332.585C439.45 332.972 438.736 333.166 437.928 333.166C436.71 333.166 435.722 332.743 434.964 331.896C434.212 331.049 433.835 329.929 433.835 328.534V328.426ZM435.379 328.609C435.379 329.605 435.609 330.405 436.068 331.008C436.533 331.611 437.153 331.913 437.928 331.913C438.708 331.913 439.328 331.608 439.787 331C440.246 330.385 440.476 329.528 440.476 328.426C440.476 327.441 440.241 326.644 439.771 326.036C439.306 325.421 438.686 325.114 437.911 325.114C437.153 325.114 436.542 325.416 436.077 326.019C435.612 326.622 435.379 327.486 435.379 328.609ZM446.768 330.917L448.993 324.019H450.562L447.341 333H446.17L442.917 324.019H444.485L446.768 330.917ZM455.65 333.166C454.432 333.166 453.442 332.768 452.678 331.971C451.915 331.168 451.533 330.097 451.533 328.758V328.476C451.533 327.585 451.701 326.791 452.039 326.094C452.382 325.391 452.858 324.843 453.467 324.45C454.081 324.052 454.745 323.853 455.459 323.853C456.627 323.853 457.534 324.237 458.182 325.006C458.829 325.776 459.153 326.877 459.153 328.31V328.949H453.068C453.09 329.835 453.348 330.551 453.84 331.099C454.338 331.641 454.969 331.913 455.733 331.913C456.275 331.913 456.735 331.802 457.111 331.581C457.487 331.359 457.816 331.066 458.099 330.701L459.037 331.431C458.284 332.588 457.155 333.166 455.65 333.166ZM455.459 325.114C454.839 325.114 454.319 325.341 453.898 325.795C453.478 326.243 453.218 326.874 453.118 327.688H457.617V327.571C457.573 326.791 457.363 326.188 456.986 325.762C456.61 325.33 456.101 325.114 455.459 325.114ZM396.457 354.165C396.308 355.443 395.834 356.431 395.038 357.128C394.246 357.82 393.192 358.166 391.875 358.166C390.447 358.166 389.302 357.654 388.438 356.63C387.581 355.607 387.152 354.237 387.152 352.521V351.359C387.152 350.236 387.351 349.248 387.75 348.396C388.153 347.544 388.723 346.891 389.459 346.437C390.195 345.978 391.048 345.748 392.016 345.748C393.3 345.748 394.329 346.108 395.104 346.827C395.879 347.541 396.33 348.532 396.457 349.799H394.855C394.717 348.836 394.415 348.139 393.95 347.707C393.491 347.275 392.846 347.06 392.016 347.06C390.998 347.06 390.198 347.436 389.617 348.188C389.042 348.941 388.754 350.012 388.754 351.401V352.571C388.754 353.883 389.028 354.926 389.576 355.701C390.124 356.475 390.89 356.863 391.875 356.863C392.76 356.863 393.438 356.664 393.909 356.265C394.385 355.861 394.7 355.161 394.855 354.165H396.457ZM400.699 345.914L404.65 355.775L408.601 345.914H410.668V358H409.074V353.293L409.224 348.213L405.256 358H404.036L400.076 348.238L400.234 353.293V358H398.64V345.914H400.699ZM417.043 352.613C415.676 352.22 414.68 351.738 414.055 351.168C413.435 350.593 413.125 349.885 413.125 349.043C413.125 348.092 413.504 347.306 414.262 346.686C415.026 346.061 416.016 345.748 417.234 345.748C418.064 345.748 418.803 345.909 419.45 346.229C420.103 346.55 420.607 346.993 420.961 347.558C421.321 348.122 421.5 348.739 421.5 349.409H419.898C419.898 348.678 419.666 348.105 419.201 347.69C418.736 347.27 418.081 347.06 417.234 347.06C416.448 347.06 415.834 347.234 415.391 347.583C414.954 347.926 414.735 348.404 414.735 349.019C414.735 349.511 414.943 349.929 415.358 350.272C415.778 350.61 416.49 350.919 417.491 351.202C418.498 351.484 419.284 351.797 419.849 352.14C420.419 352.477 420.839 352.873 421.11 353.327C421.387 353.78 421.525 354.314 421.525 354.929C421.525 355.908 421.144 356.694 420.38 357.286C419.616 357.873 418.595 358.166 417.317 358.166C416.487 358.166 415.712 358.008 414.993 357.693C414.273 357.372 413.717 356.935 413.324 356.381C412.937 355.828 412.743 355.2 412.743 354.497H414.345C414.345 355.228 414.614 355.806 415.15 356.232C415.693 356.653 416.415 356.863 417.317 356.863C418.158 356.863 418.803 356.691 419.251 356.348C419.699 356.005 419.923 355.537 419.923 354.945C419.923 354.353 419.716 353.897 419.301 353.576C418.886 353.249 418.133 352.928 417.043 352.613ZM434.466 354.846H429.403L428.266 358H426.622L431.237 345.914H432.632L437.255 358H435.62L434.466 354.846ZM429.884 353.534H433.993L431.935 347.881L429.884 353.534ZM440.476 353.269V358H438.882V345.914H443.34C444.662 345.914 445.697 346.252 446.444 346.927C447.197 347.602 447.573 348.496 447.573 349.608C447.573 350.781 447.205 351.686 446.469 352.322C445.739 352.953 444.69 353.269 443.323 353.269H440.476ZM440.476 351.965H443.34C444.192 351.965 444.845 351.766 445.299 351.368C445.753 350.964 445.979 350.383 445.979 349.625C445.979 348.905 445.753 348.33 445.299 347.898C444.845 347.466 444.222 347.242 443.431 347.226H440.476V351.965ZM451.317 358H449.723V345.914H451.317V358Z" fill="black"/>
<circle cx="350" cy="291" r="21" fill="#99D5CA"/>
<circle cx="350" cy="291" r="21" fill="white"/>
<circle cx="350" cy="291" r="21" stroke="black" stroke-width="2"/>
<path d="M353.174 295H347.118V294.156L350.317 290.601C350.791 290.064 351.117 289.628 351.295 289.293C351.477 288.955 351.568 288.606 351.568 288.246C351.568 287.764 351.422 287.368 351.13 287.059C350.838 286.75 350.449 286.596 349.962 286.596C349.378 286.596 348.923 286.763 348.597 287.097C348.276 287.427 348.115 287.889 348.115 288.481H346.94C346.94 287.63 347.213 286.943 347.759 286.418C348.309 285.893 349.044 285.631 349.962 285.631C350.821 285.631 351.5 285.857 352 286.31C352.499 286.759 352.749 287.357 352.749 288.106C352.749 289.016 352.169 290.1 351.009 291.356L348.534 294.042H353.174V295Z" fill="black"/>
<circle cx="814" cy="52" r="21" fill="#99D5CA"/>
<circle cx="814" cy="52" r="21" fill="white"/>
<circle cx="814" cy="52" r="21" stroke="black" stroke-width="2"/>
<path d="M814.978 56H813.797V48.1733L811.429 49.043V47.9766L814.793 46.7134H814.978V56Z" fill="black"/>
</svg>
